<?xml version="1.0" encoding="UTF-8"?>
<!DOCTYPE svg PUBLIC "-//W3C//DTD SVG 1.1//EN" "http://www.w3.org/Graphics/SVG/1.1/DTD/svg11.dtd">
<svg xmlns="http://www.w3.org/2000/svg" version="1.1" width="4256px" height="5315px" style="shape-rendering:geometricPrecision; text-rendering:geometricPrecision; image-rendering:optimizeQuality; fill-rule:evenodd; clip-rule:evenodd" xmlns:xlink="http://www.w3.org/1999/xlink">
  <title>Hair Style 08 - Curly</title>
<g><path style="opacity:0.103" fill="#51aea1" d="M -0.5,-0.5 C 1416.17,-0.5 2832.83,-0.5 4249.5,-0.5C 4249.5,1771.17 4249.5,3542.83 4249.5,5314.5C 2832.83,5314.5 1416.17,5314.5 -0.5,5314.5C -0.5,3542.83 -0.5,1771.17 -0.5,-0.5 Z"/></g>
<g><path style="opacity:1" fill="#51afa1" d="M 4249.5,-0.5 C 4250.5,-0.5 4251.5,-0.5 4252.5,-0.5C 4252.5,1771.17 4252.5,3542.83 4252.5,5314.5C 4251.5,5314.5 4250.5,5314.5 4249.5,5314.5C 4249.5,3542.83 4249.5,1771.17 4249.5,-0.5 Z"/></g>
<g><path style="opacity:1" fill="#5aaea6" d="M 4252.5,-0.5 C 4253.5,-0.5 4254.5,-0.5 4255.5,-0.5C 4255.5,1771.17 4255.5,3542.83 4255.5,5314.5C 4254.5,5314.5 4253.5,5314.5 4252.5,5314.5C 4252.5,3542.83 4252.5,1771.17 4252.5,-0.5 Z"/></g>
<g><path transform="translate(-8 -6) scale(1.03 1.09)" style="opacity:1" fill="#8B1A1A" d="M 2445.5,855.5 C 2437.95,853.798 2430.28,853.132 2422.5,853.5C 2421.99,858.216 2421.16,862.882 2420,867.5C 2407.93,897.776 2399.93,929.109 2396,961.5C 2391.3,966.035 2386.8,970.702 2382.5,975.5C 2381.83,957.833 2381.17,940.167 2380.5,922.5C 2381.02,884.377 2379.19,846.377 2375,808.5C 2365.52,778.719 2354.85,749.385 2343,720.5C 2331.69,694.865 2314.86,673.699 2292.5,657C 2272.13,643.598 2249.8,637.431 2225.5,638.5C 2192.23,692.573 2145.06,728.906 2084,747.5C 2051.46,757.593 2018.29,765.093 1984.5,770C 1952.55,774.119 1920.88,779.785 1889.5,787C 1873.31,791.012 1858.48,797.845 1845,807.5C 1840.27,816.681 1836.94,826.347 1835,836.5C 1827.88,872.588 1822.38,908.921 1818.5,945.5C 1818.8,947.604 1818.47,949.604 1817.5,951.5C 1810.29,954.238 1802.95,956.571 1795.5,958.5C 1793.31,942.391 1790.47,926.391 1787,910.5C 1781.27,891.308 1775.94,871.975 1771,852.5C 1761.78,850.972 1752.61,851.306 1743.5,853.5C 1732.38,787.298 1727.55,720.631 1729,653.5C 1729.75,631.317 1733.42,609.65 1740,588.5C 1742.39,582.713 1745.06,577.046 1748,571.5C 1777.21,528.788 1814.71,495.454 1860.5,471.5C 1858.68,469.183 1856.68,467.016 1854.5,465C 1842.05,456.218 1829.88,447.051 1818,437.5C 1817.52,436.552 1817.35,435.552 1817.5,434.5C 1832.17,437.64 1847.01,439.64 1862,440.5C 1865.17,440.333 1868.33,440.167 1871.5,440C 1875.91,439.252 1877.41,436.752 1876,432.5C 1872.13,416.028 1868.13,399.695 1864,383.5C 1879.94,403.888 1900.44,417.388 1925.5,424C 1999.81,425.308 2074.14,425.975 2148.5,426C 2177.21,426.04 2205.21,430.373 2232.5,439C 2242.76,442.866 2251.26,449.033 2258,457.5C 2259.77,460.715 2261.27,464.048 2262.5,467.5C 2349.09,466.522 2407.26,506.522 2437,587.5C 2457.68,648.657 2464.01,711.324 2456,775.5C 2452.97,802.254 2449.47,828.921 2445.5,855.5 Z"/></g>
<g><path style="opacity:1" fill="#d99b70" d="M 2380.5,922.5 C 2380.5,924.5 2380.5,926.5 2380.5,928.5C 2375.13,901.715 2370.29,874.715 2366,847.5C 2359.06,806.699 2346.72,767.699 2329,730.5C 2320.47,713.966 2308.97,699.799 2294.5,688C 2272.22,673.296 2248.55,670.629 2223.5,680C 2189.08,696.411 2159.91,719.578 2136,749.5C 2121.55,762.147 2105.05,771.314 2086.5,777C 2033.02,793.082 1978.35,799.415 1922.5,796C 1886.4,797.622 1860.9,814.788 1846,847.5C 1843.47,854.102 1841.13,860.769 1839,867.5C 1834.54,886.797 1830.21,906.13 1826,925.5C 1823.72,932.364 1821.22,939.031 1818.5,945.5C 1822.38,908.921 1827.88,872.588 1835,836.5C 1836.94,826.347 1840.27,816.681 1845,807.5C 1858.48,797.845 1873.31,791.012 1889.5,787C 1920.88,779.785 1952.55,774.119 1984.5,770C 2018.29,765.093 2051.46,757.593 2084,747.5C 2145.06,728.906 2192.23,692.573 2225.5,638.5C 2249.8,637.431 2272.13,643.598 2292.5,657C 2314.86,673.699 2331.69,694.865 2343,720.5C 2354.85,749.385 2365.52,778.719 2375,808.5C 2379.19,846.377 2381.02,884.377 2380.5,922.5 Z"/></g>
<g><path style="opacity:1" fill="#f2b488" d="M 2380.5,928.5 C 2380.17,944.514 2380.5,960.514 2381.5,976.5C 2382.11,976.376 2382.44,976.043 2382.5,975.5C 2386.8,970.702 2391.3,966.035 2396,961.5C 2399.93,929.109 2407.93,897.776 2420,867.5C 2421.16,862.882 2421.99,858.216 2422.5,853.5C 2430.28,853.132 2437.95,853.798 2445.5,855.5C 2460.44,857.601 2469.94,865.934 2474,880.5C 2476.4,892.051 2477.06,903.718 2476,915.5C 2470.42,955.244 2456.75,991.91 2435,1025.5C 2430.17,1031.33 2425.01,1036.83 2419.5,1042C 2412.96,1045.68 2405.96,1047.85 2398.5,1048.5C 2393.55,1048.76 2388.89,1047.76 2384.5,1045.5C 2378.47,1075.92 2368.47,1104.92 2354.5,1132.5C 2343.74,1151 2331.24,1168.34 2317,1184.5C 2290.93,1211.58 2263.43,1236.91 2234.5,1260.5C 2210.4,1279.06 2185.06,1295.89 2158.5,1311C 2145.03,1319.4 2130.36,1323.73 2114.5,1324C 2100.17,1324.67 2085.83,1324.67 2071.5,1324C 2058.43,1322.2 2046.1,1318.2 2034.5,1312C 2009.82,1299.67 1986.15,1285.84 1963.5,1270.5C 1937.77,1252.29 1913.6,1231.95 1891,1209.5C 1873.52,1190.52 1859.02,1169.52 1847.5,1146.5C 1831.18,1112.85 1818.51,1077.85 1809.5,1041.5C 1802.79,1046.24 1795.45,1047.57 1787.5,1045.5C 1779.88,1044.39 1773.21,1041.22 1767.5,1036C 1753.77,1020.05 1742.93,1002.22 1735,982.5C 1726.5,961.174 1720.5,939.174 1717,916.5C 1716.33,905.5 1716.33,894.5 1717,883.5C 1719.39,867.622 1728.22,857.622 1743.5,853.5C 1752.61,851.306 1761.78,850.972 1771,852.5C 1775.94,871.975 1781.27,891.308 1787,910.5C 1790.47,926.391 1793.31,942.391 1795.5,958.5C 1802.95,956.571 1810.29,954.238 1817.5,951.5C 1818.47,949.604 1818.8,947.604 1818.5,945.5C 1821.22,939.031 1823.72,932.364 1826,925.5C 1830.21,906.13 1834.54,886.797 1839,867.5C 1841.13,860.769 1843.47,854.102 1846,847.5C 1860.9,814.788 1886.4,797.622 1922.5,796C 1978.35,799.415 2033.02,793.082 2086.5,777C 2105.05,771.314 2121.55,762.147 2136,749.5C 2159.91,719.578 2189.08,696.411 2223.5,680C 2248.55,670.629 2272.22,673.296 2294.5,688C 2308.97,699.799 2320.47,713.966 2329,730.5C 2346.72,767.699 2359.06,806.699 2366,847.5C 2370.29,874.715 2375.13,901.715 2380.5,928.5 Z"/></g>
<g><path transform="translate(-8 -6) scale(1.03 1.09)" style="opacity:1" fill="#9B1C1C" d="M 1927.5,817.5 C 1953.86,816.394 1979.86,818.894 2005.5,825C 2008.88,829.424 2010.22,834.424 2009.5,840C 2011.28,847.647 2008.44,852.147 2001,853.5C 1972.8,844.787 1943.96,841.287 1914.5,843C 1890.75,848.297 1868.25,856.797 1847,868.5C 1855.98,854.516 1867.48,842.683 1881.5,833C 1895.75,824.304 1911.09,819.138 1927.5,817.5 Z"/></g>
<g><path transform="translate(-8 -6) scale(1.03 1.09)" style="opacity:1" fill="#9B1C1C" d="M 2250.5,818.5 C 2269.45,818.278 2287.79,821.445 2305.5,828C 2323.46,838.126 2338.46,851.626 2350.5,868.5C 2332.5,860.539 2313.83,853.373 2294.5,847C 2272.86,842.469 2251.19,842.469 2229.5,847C 2221.05,848.529 2212.72,850.529 2204.5,853C 2194.32,855.493 2189.66,851.493 2190.5,841C 2190.17,834.993 2191.83,829.66 2195.5,825C 2213.82,821.451 2232.15,819.284 2250.5,818.5 Z"/></g>
<g><path style="opacity:1" fill="#2d1a13" d="M 2126.5,925.5 C 2126.5,922.833 2126.5,920.167 2126.5,917.5C 2110.32,917.17 2094.32,917.504 2078.5,918.5C 2078.73,953.904 2069.56,986.571 2051,1016.5C 2040.33,1029.09 2026.83,1036.92 2010.5,1040C 1982.96,1045.2 1955.29,1045.87 1927.5,1042C 1903.89,1038.95 1884.39,1028.45 1869,1010.5C 1849.35,985.851 1837.35,957.851 1833,926.5C 1829.36,890.644 1845.19,868.81 1880.5,861C 1933.91,849.355 1987.25,849.688 2040.5,862C 2060.56,866.892 2072.56,879.392 2076.5,899.5C 2093.83,899.5 2111.17,899.5 2128.5,899.5C 2131.31,882.715 2140.64,871.215 2156.5,865C 2179.42,856.882 2203.09,852.882 2227.5,853C 2261.29,851.254 2294.62,854.254 2327.5,862C 2361.9,870.952 2376.74,893.119 2372,928.5C 2365.9,965.862 2349.4,997.696 2322.5,1024C 2303.72,1036.2 2283.05,1042.87 2260.5,1044C 2235.46,1046.18 2210.8,1044.18 2186.5,1038C 2168.76,1032.59 2155.6,1021.75 2147,1005.5C 2134.53,980.282 2127.7,953.616 2126.5,925.5 Z"/></g>
<g><path style="opacity:1" fill="#f2b488" d="M 1937.5,870.5 C 1961.61,869.735 1985.61,870.902 2009.5,874C 2023.57,875.58 2036.91,879.58 2049.5,886C 2053.72,889.605 2056.55,894.105 2058,899.5C 2062.91,934.266 2057.25,967.266 2041,998.5C 2034.29,1010.52 2024.12,1018.02 2010.5,1021C 1982.32,1027.54 1953.99,1028.21 1925.5,1023C 1902.5,1018.99 1885.33,1006.82 1874,986.5C 1858.64,963.092 1850.97,937.426 1851,909.5C 1851.82,900.699 1855.65,893.532 1862.5,888C 1870.46,883.682 1878.79,880.349 1887.5,878C 1904.17,874.497 1920.84,871.997 1937.5,870.5 Z"/></g>
<g><path style="opacity:1" fill="#f2b488" d="M 2222.5,870.5 C 2248.98,869.653 2275.31,871.153 2301.5,875C 2315.92,877.02 2329.59,881.354 2342.5,888C 2351.47,895.744 2355.47,905.577 2354.5,917.5C 2351.36,950.1 2339.19,978.767 2318,1003.5C 2309.45,1012.03 2299.28,1017.86 2287.5,1021C 2256.16,1028.3 2224.82,1028.3 2193.5,1021C 2180.35,1017.69 2170.52,1010.19 2164,998.5C 2146.92,966.237 2141.58,932.237 2148,896.5C 2151.33,888.507 2157.16,883.341 2165.5,881C 2184.26,875.491 2203.26,871.991 2222.5,870.5 Z"/></g>
<g><path style="opacity:1" fill="#402719" d="M 2306.5,944.5 C 2307.89,940.485 2309.39,936.485 2311,932.5C 2311.98,929.331 2311.48,926.497 2309.5,924C 2296.05,919.553 2282.38,916.22 2268.5,914C 2278.24,925.831 2279.07,938.331 2271,951.5C 2267.54,955.807 2263.37,959.141 2258.5,961.5C 2253.01,963.21 2247.34,963.876 2241.5,963.5C 2222.47,958.597 2214.3,946.264 2217,926.5C 2218.05,923.346 2219.05,920.346 2220,917.5C 2210.04,923.958 2201.54,931.958 2194.5,941.5C 2191.05,940.872 2189.88,938.872 2191,935.5C 2203.26,918.896 2219.42,908.396 2239.5,904C 2249.92,903.868 2260.25,904.868 2270.5,907C 2286.69,910.546 2302.69,914.713 2318.5,919.5C 2317.97,929.557 2313.97,937.89 2306.5,944.5 Z"/></g>
<g><path style="opacity:1" fill="#402719" d="M 2005.5,941.5 C 1999.14,931.478 1990.8,923.478 1980.5,917.5C 1986.85,933.022 1983.52,946.522 1970.5,958C 1966.38,960.207 1962.04,961.707 1957.5,962.5C 1952.46,962.587 1947.46,962.254 1942.5,961.5C 1927.35,953.863 1921.18,941.53 1924,924.5C 1925.73,920.43 1927.9,916.597 1930.5,913C 1916.05,914.236 1902.22,917.736 1889,923.5C 1888.33,926.167 1888.33,928.833 1889,931.5C 1890.61,935.485 1892.11,939.485 1893.5,943.5C 1885.81,936.619 1881.81,928.119 1881.5,918C 1904.81,909.704 1928.81,904.537 1953.5,902.5C 1971.51,904.004 1986.84,911.171 1999.5,924C 2003.02,928.022 2006.36,932.189 2009.5,936.5C 2008.87,938.786 2007.53,940.452 2005.5,941.5 Z"/></g>
<g><path style="opacity:1" fill="#f4f2f1" d="M 1946.5,909.5 C 1948.79,909.244 1950.96,909.577 1953,910.5C 1950.72,919.504 1945.55,926.671 1937.5,932C 1934.85,934.216 1931.85,935.216 1928.5,935C 1927.17,925.654 1930.5,918.321 1938.5,913C 1941.31,911.907 1943.98,910.74 1946.5,909.5 Z"/></g>
<g><path style="opacity:1" fill="#f7f6f5" d="M 2246.5,911.5 C 2263.19,911.52 2271.52,919.853 2271.5,936.5C 2267.67,936.751 2264.34,935.584 2261.5,933C 2255.53,928.041 2250.7,922.208 2247,915.5C 2246.51,914.207 2246.34,912.873 2246.5,911.5 Z"/></g>
<g><path style="opacity:1" fill="#f8f7f6" d="M 1942.5,961.5 C 1929.63,959.617 1916.97,956.784 1904.5,953C 1900.02,950.686 1896.36,947.52 1893.5,943.5C 1892.11,939.485 1890.61,935.485 1889,931.5C 1888.33,928.833 1888.33,926.167 1889,923.5C 1902.22,917.736 1916.05,914.236 1930.5,913C 1927.9,916.597 1925.73,920.43 1924,924.5C 1921.18,941.53 1927.35,953.863 1942.5,961.5 Z"/></g>
<g><path style="opacity:1" fill="#f8f7f6" d="M 2306.5,944.5 C 2303.25,949.243 2298.92,952.743 2293.5,955C 2281.94,959.083 2270.27,961.25 2258.5,961.5C 2263.37,959.141 2267.54,955.807 2271,951.5C 2279.07,938.331 2278.24,925.831 2268.5,914C 2282.38,916.22 2296.05,919.553 2309.5,924C 2311.48,926.497 2311.98,929.331 2311,932.5C 2309.39,936.485 2307.89,940.485 2306.5,944.5 Z"/></g>
<g><path style="opacity:1" fill="#885a47" d="M 2078.5,918.5 C 2094.32,917.504 2110.32,917.17 2126.5,917.5C 2126.5,920.167 2126.5,922.833 2126.5,925.5C 2125.53,923.393 2125.2,921.059 2125.5,918.5C 2109.83,918.5 2094.17,918.5 2078.5,918.5 Z"/></g>
<g><path style="opacity:1" fill="#f8f7f6" d="M 2005.5,941.5 C 2000.45,950.72 1993.45,958.22 1984.5,964C 1976.5,964.667 1968.5,964.667 1960.5,964C 1959.26,963.768 1958.26,963.268 1957.5,962.5C 1962.04,961.707 1966.38,960.207 1970.5,958C 1983.52,946.522 1986.85,933.022 1980.5,917.5C 1990.8,923.478 1999.14,931.478 2005.5,941.5 Z"/></g>
<g><path style="opacity:1" fill="#f7f6f5" d="M 2241.5,963.5 C 2240.39,964.29 2239.06,964.79 2237.5,965C 2229.83,965.667 2222.17,965.667 2214.5,965C 2205.81,958.813 2199.14,950.979 2194.5,941.5C 2201.54,931.958 2210.04,923.958 2220,917.5C 2219.05,920.346 2218.05,923.346 2217,926.5C 2214.3,946.264 2222.47,958.597 2241.5,963.5 Z"/></g>
<g><path style="opacity:1" fill="#aa7e69" d="M 2380.5,922.5 C 2381.17,940.167 2381.83,957.833 2382.5,975.5C 2382.44,976.043 2382.11,976.376 2381.5,976.5C 2380.5,960.514 2380.17,944.514 2380.5,928.5C 2380.5,926.5 2380.5,924.5 2380.5,922.5 Z"/></g>
<g><path style="opacity:1" fill="#da9770" d="M 2095.5,976.5 C 2096.83,1004 2096.83,1031.67 2095.5,1059.5C 2086.62,1052.56 2077.95,1045.4 2069.5,1038C 2078.33,1017.51 2087,997.006 2095.5,976.5 Z"/></g>
<g><path transform="translate(-8 -6) scale(1.03 1.09)" style="opacity:1" fill="#7A1414" d="M 1847.5,1146.5 C 1819.62,1117.77 1799.62,1084.1 1787.5,1045.5C 1795.45,1047.57 1802.79,1046.24 1809.5,1041.5C 1818.51,1077.85 1831.18,1112.85 1847.5,1146.5 Z"/></g>
<g><path transform="translate(-8 -6) scale(1.03 1.09)" style="opacity:1" fill="#6A1010" d="M 2398.5,1048.5 C 2389.73,1076.05 2377.23,1101.71 2361,1125.5C 2358.82,1127.91 2356.65,1130.24 2354.5,1132.5C 2368.47,1104.92 2378.47,1075.92 2384.5,1045.5C 2388.89,1047.76 2393.55,1048.76 2398.5,1048.5 Z"/></g>
<g><path style="opacity:1" fill="#da9770" d="M 2187.5,1144.5 C 2188.24,1144.37 2188.91,1144.54 2189.5,1145C 2181.83,1151.33 2174.17,1157.67 2166.5,1164C 2120.17,1164.67 2073.83,1164.67 2027.5,1164C 2021.68,1158.34 2015.68,1152.84 2009.5,1147.5C 2019.64,1149.45 2029.97,1151.95 2040.5,1155C 2080.17,1155.07 2119.83,1154.74 2159.5,1154C 2169.04,1151.12 2178.37,1147.96 2187.5,1144.5 Z"/></g>
<g><path style="opacity:1" fill="#da9670" d="M 2234.5,1260.5 C 2236.56,1270.67 2239.22,1280.67 2242.5,1290.5C 2242.39,1292.78 2241.56,1294.78 2240,1296.5C 2224.49,1315.01 2207.33,1331.84 2188.5,1347C 2180.15,1352.18 2171.49,1356.84 2162.5,1361C 2141.88,1366.88 2121.21,1366.88 2100.5,1361C 2074.35,1353.25 2049.68,1342.25 2026.5,1328C 2010.15,1316.82 1994.15,1305.16 1978.5,1293C 1972.85,1290.4 1967.18,1287.9 1961.5,1285.5C 1962.17,1280.5 1962.83,1275.5 1963.5,1270.5C 1986.15,1285.84 2009.82,1299.67 2034.5,1312C 2046.1,1318.2 2058.43,1322.2 2071.5,1324C 2085.83,1324.67 2100.17,1324.67 2114.5,1324C 2130.36,1323.73 2145.03,1319.4 2158.5,1311C 2185.06,1295.89 2210.4,1279.06 2234.5,1260.5 Z"/></g>
<g><path style="opacity:1" fill="#f3b589" d="M 1961.5,1285.5 C 1967.18,1287.9 1972.85,1290.4 1978.5,1293C 1994.15,1305.16 2010.15,1316.82 2026.5,1328C 2049.68,1342.25 2074.35,1353.25 2100.5,1361C 2121.21,1366.88 2141.88,1366.88 2162.5,1361C 2171.49,1356.84 2180.15,1352.18 2188.5,1347C 2207.33,1331.84 2224.49,1315.01 2240,1296.5C 2241.56,1294.78 2242.39,1292.78 2242.5,1290.5C 2245.13,1296.43 2247.8,1302.43 2250.5,1308.5C 2228.93,1339.28 2207.1,1369.95 2185,1400.5C 2184.1,1419.79 2181.93,1438.79 2178.5,1457.5C 2131.13,1461.73 2083.79,1461.4 2036.5,1456.5C 2034.21,1437.96 2033.04,1419.29 2033,1400.5C 2006.96,1370.63 1981.12,1340.63 1955.5,1310.5C 1957.97,1302.28 1959.97,1293.95 1961.5,1285.5 Z"/></g>
<g><path style="opacity:1" fill="#d3d3d2" d="M 2302.5,1352.5 C 2301.5,1352.5 2300.5,1352.5 2299.5,1352.5C 2289.71,1388.2 2276.38,1422.53 2259.5,1455.5C 2258.17,1458.17 2256.83,1460.83 2255.5,1463.5C 2229.96,1512.56 2196.3,1555.39 2154.5,1592C 2146.65,1597.7 2138.98,1603.53 2131.5,1609.5C 2126.49,1612 2121.82,1615 2117.5,1618.5C 2113.98,1620.42 2110.32,1622.09 2106.5,1623.5C 2109.03,1621.39 2111.36,1619.06 2113.5,1616.5C 2213.3,1530.95 2263.97,1421.95 2265.5,1289.5C 2265.64,1287.66 2266.31,1287.33 2267.5,1288.5C 2277.59,1307.68 2287.42,1327.01 2297,1346.5C 2298.17,1349.24 2300.01,1351.24 2302.5,1352.5 Z"/></g>
<g><path style="opacity:1" fill="#e7e7e7" d="M 1955.5,1310.5 C 1981.12,1340.63 2006.96,1370.63 2033,1400.5C 2033.04,1419.29 2034.21,1437.96 2036.5,1456.5C 2040.05,1493.84 2048.72,1529.84 2062.5,1564.5C 2035.73,1540.96 2014.23,1513.29 1998,1481.5C 1987.18,1459.52 1977.18,1437.19 1968,1414.5C 1954.73,1379.52 1941.56,1344.52 1928.5,1309.5C 1930.16,1302.03 1932.32,1294.69 1935,1287.5C 1942.07,1295.06 1948.9,1302.73 1955.5,1310.5 Z"/></g>
<g><path style="opacity:1" fill="#e7e7e7" d="M 2265.5,1289.5 C 2263.97,1421.95 2213.3,1530.95 2113.5,1616.5C 2130.43,1597.67 2143.6,1576.34 2153,1552.5C 2165.27,1521.84 2173.77,1490.18 2178.5,1457.5C 2181.93,1438.79 2184.1,1419.79 2185,1400.5C 2207.1,1369.95 2228.93,1339.28 2250.5,1308.5C 2255.26,1301.98 2260.26,1295.65 2265.5,1289.5 Z"/></g>
<g><path style="opacity:1" fill="#d3d3d3" d="M 1928.5,1309.5 C 1941.56,1344.52 1954.73,1379.52 1968,1414.5C 1977.18,1437.19 1987.18,1459.52 1998,1481.5C 2014.23,1513.29 2035.73,1540.96 2062.5,1564.5C 2069,1577.18 2076.17,1589.52 2084,1601.5C 2090.84,1609.84 2098.34,1617.18 2106.5,1623.5C 2105.4,1624.6 2104.07,1624.76 2102.5,1624C 2057.45,1598.29 2019.95,1564.13 1990,1521.5C 1955.02,1471.76 1929.52,1417.43 1913.5,1358.5C 1918.13,1341.95 1923.13,1325.62 1928.5,1309.5 Z"/></g>
<g><path style="opacity:1" fill="#a31513" d="M 2302.5,1352.5 C 2317.59,1354.01 2332.25,1357.01 2346.5,1361.5C 2342.22,1364.11 2338.56,1367.44 2335.5,1371.5C 2311.85,1399.65 2288.02,1427.65 2264,1455.5C 2262.7,1455.97 2261.2,1455.97 2259.5,1455.5C 2276.38,1422.53 2289.71,1388.2 2299.5,1352.5C 2300.5,1352.5 2301.5,1352.5 2302.5,1352.5 Z"/></g>
<g><path style="opacity:1" fill="#e7e6e6" d="M 2560.5,1444.5 C 2560.5,1444.17 2560.5,1443.83 2560.5,1443.5C 2578.85,1446.51 2594.51,1454.51 2607.5,1467.5C 2607.06,1467.43 2606.73,1467.6 2606.5,1468C 2657.46,1555.98 2692.29,1653.15 2711,1759.5C 2718.1,1817.64 2718.27,1875.81 2711.5,1934C 2711.51,1935.38 2711.85,1936.55 2712.5,1937.5C 2707.46,1940.01 2702.13,1942.01 2696.5,1943.5C 2669.06,1939.03 2646.22,1926.36 2628,1905.5C 2604.95,1876.07 2587.61,1843.4 2576,1807.5C 2562.89,1768.01 2551.72,1728.01 2542.5,1687.5C 2549.35,1607.79 2556.69,1528.13 2564.5,1448.5C 2564.47,1445.82 2563.14,1444.49 2560.5,1444.5 Z"/></g>
<g><path style="opacity:1" fill="#a21212" d="M 2560.5,1444.5 C 2563.14,1444.49 2564.47,1445.82 2564.5,1448.5C 2556.69,1528.13 2549.35,1607.79 2542.5,1687.5C 2541.83,1690.83 2541.17,1694.17 2540.5,1697.5C 2540.7,1695.61 2540.04,1694.11 2538.5,1693C 2501.71,1661.72 2465.04,1630.22 2428.5,1598.5C 2472.9,1547.44 2516.9,1496.11 2560.5,1444.5 Z"/></g>
<g><path style="opacity:1" fill="#e6e6e6" d="M 1691.5,1446.5 C 1696.76,1482.54 1702.1,1518.54 1707.5,1554.5C 1715.93,1616.15 1724.26,1677.82 1732.5,1739.5C 1724.27,1751.61 1716.77,1764.28 1710,1777.5C 1695.6,1807.3 1679.94,1836.3 1663,1864.5C 1630.34,1904.93 1589.17,1933.09 1539.5,1949C 1537.19,1949.5 1534.86,1949.66 1532.5,1949.5C 1512,1941.22 1491.66,1932.56 1471.5,1923.5C 1490.77,1812.53 1522.27,1705.2 1566,1601.5C 1582.94,1562.94 1603.94,1526.94 1629,1493.5C 1642.01,1477.49 1657.17,1463.99 1674.5,1453C 1679.77,1449.69 1685.44,1447.53 1691.5,1446.5 Z"/></g>
<g><path style="opacity:1" fill="#ececec" d="M 2607.5,1467.5 C 2616.83,1474.67 2625,1483 2632,1492.5C 2651.38,1518.56 2667.71,1546.56 2681,1576.5C 2707.31,1637.09 2728.64,1699.43 2745,1763.5C 2757.82,1812.42 2768.65,1861.75 2777.5,1911.5C 2777.59,1912.5 2777.25,1913.33 2776.5,1914C 2755.25,1922.14 2733.91,1929.97 2712.5,1937.5C 2711.85,1936.55 2711.51,1935.38 2711.5,1934C 2718.27,1875.81 2718.1,1817.64 2711,1759.5C 2692.29,1653.15 2657.46,1555.98 2606.5,1468C 2606.73,1467.6 2607.06,1467.43 2607.5,1467.5 Z"/></g>
<g><path style="opacity:1" fill="#a21212" d="M 1913.5,1358.5 C 1929.52,1417.43 1955.02,1471.76 1990,1521.5C 2019.95,1564.13 2057.45,1598.29 2102.5,1624C 2104.07,1624.76 2105.4,1624.6 2106.5,1623.5C 2110.32,1622.09 2113.98,1620.42 2117.5,1618.5C 2119.11,1619.9 2119.94,1621.56 2120,1623.5C 2073,1677.83 2026,1732.17 1979,1786.5C 1926.15,1740.65 1872.99,1695.15 1819.5,1650C 1817.77,1648.61 1816.44,1646.94 1815.5,1645C 1862.19,1590.32 1908.85,1535.65 1955.5,1481C 1952.11,1475.94 1947.77,1471.94 1942.5,1469C 1908.72,1439.81 1875.05,1410.64 1841.5,1381.5C 1865,1372.29 1889,1364.62 1913.5,1358.5 Z"/></g>
<g><path style="opacity:1" fill="#a21312" d="M 1707.5,1554.5 C 1742.84,1584.84 1778.18,1615.17 1813.5,1645.5C 1788.08,1674.91 1763.08,1704.58 1738.5,1734.5C 1736.5,1736.17 1734.5,1737.83 1732.5,1739.5C 1724.26,1677.82 1715.93,1616.15 1707.5,1554.5 Z"/></g>
<g><path style="opacity:1" fill="#d3d3d3" d="M 2542.5,1687.5 C 2551.72,1728.01 2562.89,1768.01 2576,1807.5C 2587.61,1843.4 2604.95,1876.07 2628,1905.5C 2646.22,1926.36 2669.06,1939.03 2696.5,1943.5C 2657.98,1958.34 2619.31,1973.01 2580.5,1987.5C 2567.48,1935.88 2554.64,1884.22 2542,1832.5C 2539.25,1821.16 2535.75,1810.16 2531.5,1799.5C 2534.86,1765.55 2537.86,1731.55 2540.5,1697.5C 2541.17,1694.17 2541.83,1690.83 2542.5,1687.5 Z"/></g>
<g><path style="opacity:1" fill="#ae1912" d="M 1738.5,1734.5 C 1747.05,1750.98 1755.88,1767.31 1765,1783.5C 1777.88,1809.47 1789.21,1836.13 1799,1863.5C 1806.79,1888 1813.96,1912.67 1820.5,1937.5C 1797.78,1917.11 1774.44,1897.44 1750.5,1878.5C 1746.23,1843.31 1741.56,1808.31 1736.5,1773.5C 1735.5,1762.13 1734.16,1750.79 1732.5,1739.5C 1734.5,1737.83 1736.5,1736.17 1738.5,1734.5 Z"/></g>
<g><path style="opacity:1" fill="#d3d3d3" d="M 1732.5,1739.5 C 1734.16,1750.79 1735.5,1762.13 1736.5,1773.5C 1716.85,1852.78 1697.51,1932.12 1678.5,2011.5C 1629.31,1991.78 1580.65,1971.11 1532.5,1949.5C 1534.86,1949.66 1537.19,1949.5 1539.5,1949C 1589.17,1933.09 1630.34,1904.93 1663,1864.5C 1679.94,1836.3 1695.6,1807.3 1710,1777.5C 1716.77,1764.28 1724.27,1751.61 1732.5,1739.5 Z"/></g>
<g><path style="opacity:1" fill="#a21312" d="M 2529.5,1815.5 C 2525.5,1863.86 2521.16,1912.2 2516.5,1960.5C 2494.85,1942.19 2473.19,1923.86 2451.5,1905.5C 2477.21,1875.13 2503.21,1845.13 2529.5,1815.5 Z"/></g>
<g><path style="opacity:1" fill="#96120d" d="M 1750.5,1878.5 C 1774.44,1897.44 1797.78,1917.11 1820.5,1937.5C 1825.97,1942.14 1831.31,1946.97 1836.5,1952C 1833.62,1956.27 1830.62,1960.43 1827.5,1964.5C 1808.17,1986.83 1788.83,2009.17 1769.5,2031.5C 1763.1,1980.65 1756.77,1929.65 1750.5,1878.5 Z"/></g>
<g><path style="opacity:1" fill="#c1c1c1" d="M 2777.5,1911.5 C 2781.56,1923.85 2785.56,1936.35 2789.5,1949C 2789.36,1949.77 2789.02,1950.44 2788.5,1951C 2783.88,1953.26 2779.21,1955.43 2774.5,1957.5C 2719.07,1983.05 2664.07,2009.38 2609.5,2036.5C 2604.6,2038.45 2599.6,2040.11 2594.5,2041.5C 2589.83,2023.5 2585.17,2005.5 2580.5,1987.5C 2619.31,1973.01 2657.98,1958.34 2696.5,1943.5C 2702.13,1942.01 2707.46,1940.01 2712.5,1937.5C 2733.91,1929.97 2755.25,1922.14 2776.5,1914C 2777.25,1913.33 2777.59,1912.5 2777.5,1911.5 Z"/></g>
<g><path style="opacity:1" fill="#c1c1c1" d="M 1471.5,1923.5 C 1491.66,1932.56 1512,1941.22 1532.5,1949.5C 1580.65,1971.11 1629.31,1991.78 1678.5,2011.5C 1672.95,2032.39 1666.78,2053.06 1660,2073.5C 1653.17,2069.17 1646,2065.5 1638.5,2062.5C 1586.21,2034.35 1533.54,2006.69 1480.5,1979.5C 1479.82,1979.86 1479.15,1980.2 1478.5,1980.5C 1478.72,1979.32 1478.39,1978.32 1477.5,1977.5C 1471.83,1974.67 1466.17,1971.83 1460.5,1969C 1459.94,1968.28 1459.61,1967.44 1459.5,1966.5C 1463.14,1951.94 1467.14,1937.61 1471.5,1923.5 Z"/></g>
<g><path style="opacity:1" fill="#bb1919" d="M 2346.5,1361.5 C 2381.15,1370.65 2415.15,1381.82 2448.5,1395C 2486.31,1410.1 2523.64,1426.27 2560.5,1443.5C 2560.5,1443.83 2560.5,1444.17 2560.5,1444.5C 2516.9,1496.11 2472.9,1547.44 2428.5,1598.5C 2465.04,1630.22 2501.71,1661.72 2538.5,1693C 2540.04,1694.11 2540.7,1695.61 2540.5,1697.5C 2537.86,1731.55 2534.86,1765.55 2531.5,1799.5C 2531.22,1805.02 2530.55,1810.35 2529.5,1815.5C 2503.21,1845.13 2477.21,1875.13 2451.5,1905.5C 2473.19,1923.86 2494.85,1942.19 2516.5,1960.5C 2509.38,2036.49 2502.38,2112.49 2495.5,2188.5C 2488.34,2195.83 2481.67,2203.67 2475.5,2212C 2480.31,2217.22 2485.64,2221.72 2491.5,2225.5C 2489.86,2247.22 2487.86,2268.89 2485.5,2290.5C 2475.37,2298.45 2465.04,2306.28 2454.5,2314C 2431.67,2329.24 2407,2341.91 2380.5,2352C 2369.47,2356.29 2358.14,2359.45 2346.5,2361.5C 2389.18,2312 2431.51,2262.16 2473.5,2212C 2419.28,2164.77 2364.78,2117.94 2310,2071.5C 2262.14,2125.55 2214.97,2180.21 2168.5,2235.5C 2219.16,2279.49 2270.16,2323.15 2321.5,2366.5C 2321.08,2367.22 2320.42,2367.72 2319.5,2368C 2238,2379.32 2160.67,2366.49 2087.5,2329.5C 2113.08,2298.41 2139.25,2267.75 2166,2237.5C 2166.63,2235.1 2165.8,2233.26 2163.5,2232C 2110.26,2185.81 2056.76,2139.97 2003,2094.5C 1977.32,2124.34 1951.49,2154.01 1925.5,2183.5C 1893.37,2138.14 1867.87,2089.14 1849,2036.5C 1841.53,2012.61 1834.36,1988.61 1827.5,1964.5C 1830.62,1960.43 1833.62,1956.27 1836.5,1952C 1831.31,1946.97 1825.97,1942.14 1820.5,1937.5C 1813.96,1912.67 1806.79,1888 1799,1863.5C 1789.21,1836.13 1777.88,1809.47 1765,1783.5C 1755.88,1767.31 1747.05,1750.98 1738.5,1734.5C 1763.08,1704.58 1788.08,1674.91 1813.5,1645.5C 1778.18,1615.17 1742.84,1584.84 1707.5,1554.5C 1702.1,1518.54 1696.76,1482.54 1691.5,1446.5C 1740.27,1422.12 1790.27,1400.45 1841.5,1381.5C 1875.05,1410.64 1908.72,1439.81 1942.5,1469C 1947.77,1471.94 1952.11,1475.94 1955.5,1481C 1908.85,1535.65 1862.19,1590.32 1815.5,1645C 1816.44,1646.94 1817.77,1648.61 1819.5,1650C 1872.99,1695.15 1926.15,1740.65 1979,1786.5C 2026,1732.17 2073,1677.83 2120,1623.5C 2119.94,1621.56 2119.11,1619.9 2117.5,1618.5C 2121.82,1615 2126.49,1612 2131.5,1609.5C 2128.38,1613.79 2125.05,1617.96 2121.5,1622C 2176.03,1669.18 2230.87,1716.02 2286,1762.5C 2333.28,1708.11 2380.45,1653.61 2427.5,1599C 2373.06,1552.26 2318.73,1505.26 2264.5,1458C 2261.22,1459.24 2258.39,1461.4 2256,1464.5C 2255.6,1464.27 2255.43,1463.94 2255.5,1463.5C 2256.83,1460.83 2258.17,1458.17 2259.5,1455.5C 2261.2,1455.97 2262.7,1455.97 2264,1455.5C 2288.02,1427.65 2311.85,1399.65 2335.5,1371.5C 2338.56,1367.44 2342.22,1364.11 2346.5,1361.5 Z"/></g>
<g><path style="opacity:1" fill="#a21212" d="M 1978.5,1787.5 C 2024.26,1825.76 2069.59,1864.59 2114.5,1904C 2124.79,1911.63 2134.46,1919.96 2143.5,1929C 2104.98,1974.18 2066.48,2019.35 2028,2064.5C 2019.78,2074.32 2011.11,2083.65 2002,2092.5C 1947.91,2045.42 1893.41,1998.59 1838.5,1952C 1885.4,1897.27 1932.07,1842.44 1978.5,1787.5 Z"/></g>
<g><path style="opacity:1" fill="#a21212" d="M 2285.5,1764.5 C 2296.94,1773.43 2308.27,1782.6 2319.5,1792C 2362.86,1830.32 2406.53,1868.16 2450.5,1905.5C 2404.25,1960.76 2357.25,2015.42 2309.5,2069.5C 2256.69,2024.85 2204.02,1980.02 2151.5,1935C 2149.32,1932.98 2147.32,1930.82 2145.5,1928.5C 2192.68,1874.01 2239.35,1819.34 2285.5,1764.5 Z"/></g>
<g><path style="opacity:1" fill="#a21212" d="M 2131.5,1609.5 C 2138.98,1603.53 2146.65,1597.7 2154.5,1592C 2196.3,1555.39 2229.96,1512.56 2255.5,1463.5C 2255.43,1463.94 2255.6,1464.27 2256,1464.5C 2258.39,1461.4 2261.22,1459.24 2264.5,1458C 2318.73,1505.26 2373.06,1552.26 2427.5,1599C 2380.45,1653.61 2333.28,1708.11 2286,1762.5C 2230.87,1716.02 2176.03,1669.18 2121.5,1622C 2125.05,1617.96 2128.38,1613.79 2131.5,1609.5 Z"/></g>
<g><path style="opacity:1" fill="#f9f9f9" d="M 2036.5,1456.5 C 2083.79,1461.4 2131.13,1461.73 2178.5,1457.5C 2173.77,1490.18 2165.27,1521.84 2153,1552.5C 2143.6,1576.34 2130.43,1597.67 2113.5,1616.5C 2111.36,1619.06 2109.03,1621.39 2106.5,1623.5C 2098.34,1617.18 2090.84,1609.84 2084,1601.5C 2076.17,1589.52 2069,1577.18 2062.5,1564.5C 2048.72,1529.84 2040.05,1493.84 2036.5,1456.5 Z"/></g>
<g><path style="opacity:1" fill="#f2b589" d="M 2774.5,1957.5 C 2784.58,2014.2 2792.74,2071.2 2799,2128.5C 2801.28,2180.55 2800.28,2232.55 2796,2284.5C 2790.55,2350.52 2784.89,2416.52 2779,2482.5C 2774.08,2544.08 2771.75,2605.74 2772,2667.5C 2775.53,2677.75 2778.86,2688.08 2782,2698.5C 2783.77,2708.44 2785.11,2718.44 2786,2728.5C 2786.75,2752.85 2786.41,2777.18 2785,2801.5C 2779.65,2824.86 2770.98,2846.86 2759,2867.5C 2738.56,2901.88 2715.06,2934.05 2688.5,2964C 2681.31,2966.3 2674.31,2965.97 2667.5,2963C 2664.41,2959.49 2663.07,2955.32 2663.5,2950.5C 2663.69,2945.72 2664.53,2941.06 2666,2936.5C 2676.87,2905.07 2685.37,2873.07 2691.5,2840.5C 2699.81,2835.69 2706.31,2829.02 2711,2820.5C 2722.02,2801.1 2729.69,2780.43 2734,2758.5C 2735.02,2742.69 2734.02,2727.02 2731,2711.5C 2729.05,2751.01 2718.39,2788.01 2699,2822.5C 2694.45,2830.05 2688.28,2835.88 2680.5,2840C 2683.48,2840.5 2686.48,2840.66 2689.5,2840.5C 2669.15,2845.98 2659.99,2838.31 2662,2817.5C 2668.17,2789.67 2671.67,2761.5 2672.5,2733C 2671.79,2717.47 2670.63,2701.97 2669,2686.5C 2667.95,2676.03 2668.61,2665.7 2671,2655.5C 2672.84,2651.82 2675.17,2648.48 2678,2645.5C 2678.17,2643.5 2678.33,2641.5 2678.5,2639.5C 2665.42,2470.16 2652.25,2300.82 2639,2131.5C 2637.95,2124.67 2636.28,2118.01 2634,2111.5C 2625.25,2086.67 2617.08,2061.67 2609.5,2036.5C 2664.07,2009.38 2719.07,1983.05 2774.5,1957.5 Z"/></g>
<g><path style="opacity:1" fill="#f2b589" d="M 1638.5,2062.5 C 1630.96,2083.63 1624.12,2104.96 1618,2126.5C 1603.25,2295.28 1588.75,2464.12 1574.5,2633C 1574.67,2635.5 1574.83,2638 1575,2640.5C 1580.12,2646.17 1583.12,2652.84 1584,2660.5C 1584.74,2676.27 1583.74,2691.93 1581,2707.5C 1580.33,2725.17 1580.33,2742.83 1581,2760.5C 1583.02,2777.61 1585.69,2794.61 1589,2811.5C 1589.82,2817.9 1589.48,2824.24 1588,2830.5C 1583.71,2835.73 1578.21,2837.73 1571.5,2836.5C 1560.36,2829.86 1552.2,2820.52 1547,2808.5C 1531.29,2776.32 1522.79,2742.32 1521.5,2706.5C 1515.81,2729.66 1516.31,2752.66 1523,2775.5C 1527.79,2790.53 1534.12,2804.87 1542,2818.5C 1546.82,2826.49 1553.32,2832.49 1561.5,2836.5C 1560.37,2838.63 1560.2,2840.96 1561,2843.5C 1567.12,2873.97 1575.12,2903.97 1585,2933.5C 1592.24,2955.92 1584.4,2964.76 1561.5,2960C 1537.01,2930.84 1514.84,2900.01 1495,2867.5C 1481,2844.16 1471.33,2819.16 1466,2792.5C 1465.33,2770.5 1465.33,2748.5 1466,2726.5C 1466.91,2704.2 1471.91,2682.87 1481,2662.5C 1481.7,2606.1 1480.03,2549.77 1476,2493.5C 1470.26,2418.17 1464.59,2342.84 1459,2267.5C 1456.73,2226.19 1456.06,2184.86 1457,2143.5C 1457.34,2128.08 1458.68,2112.75 1461,2097.5C 1466.25,2058.4 1472.09,2019.4 1478.5,1980.5C 1479.15,1980.2 1479.82,1979.86 1480.5,1979.5C 1533.54,2006.69 1586.21,2034.35 1638.5,2062.5 Z"/></g>
<g><path style="opacity:1" fill="#a21212" d="M 2346.5,2361.5 C 2342.19,2366.81 2337.53,2371.81 2332.5,2376.5C 2328.79,2373.12 2325.12,2369.78 2321.5,2366.5C 2270.16,2323.15 2219.16,2279.49 2168.5,2235.5C 2214.97,2180.21 2262.14,2125.55 2310,2071.5C 2364.78,2117.94 2419.28,2164.77 2473.5,2212C 2431.51,2262.16 2389.18,2312 2346.5,2361.5 Z"/></g>
<g><path style="opacity:1" fill="#a21212" d="M 2087.5,2329.5 C 2087.5,2330.17 2087.17,2330.5 2086.5,2330.5C 2086.59,2329.5 2086.25,2328.67 2085.5,2328C 2052.38,2310.21 2022.05,2288.55 1994.5,2263C 1969.37,2238.39 1946.37,2212.23 1925.5,2184.5C 1925.5,2184.17 1925.5,2183.83 1925.5,2183.5C 1951.49,2154.01 1977.32,2124.34 2003,2094.5C 2056.76,2139.97 2110.26,2185.81 2163.5,2232C 2165.8,2233.26 2166.63,2235.1 2166,2237.5C 2139.25,2267.75 2113.08,2298.41 2087.5,2329.5 Z"/></g>
<g><path style="opacity:1" fill="#96120c" d="M 1925.5,2184.5 C 1946.37,2212.23 1969.37,2238.39 1994.5,2263C 2022.05,2288.55 2052.38,2310.21 2085.5,2328C 2086.25,2328.67 2086.59,2329.5 2086.5,2330.5C 2066.5,2353.67 2046.33,2376.67 2026,2399.5C 1971.3,2352.83 1916.47,2305.99 1861.5,2259C 1882.36,2233.65 1903.69,2208.81 1925.5,2184.5 Z"/></g>
<g><path style="opacity:1" fill="#96130d" d="M 1786.5,2195.5 C 1811.73,2215.96 1836.4,2237.13 1860.5,2259C 1840.68,2282.82 1820.51,2306.32 1800,2329.5C 1799.5,2331.47 1799.34,2333.47 1799.5,2335.5C 1795.78,2288.9 1791.45,2242.24 1786.5,2195.5 Z"/></g>
<g><path style="opacity:1" fill="#a31613" d="M 2495.5,2188.5 C 2494.29,2200.86 2492.95,2213.19 2491.5,2225.5C 2485.64,2221.72 2480.31,2217.22 2475.5,2212C 2481.67,2203.67 2488.34,2195.83 2495.5,2188.5 Z"/></g>
<g><path style="opacity:1" fill="#ae1812" d="M 1827.5,1964.5 C 1834.36,1988.61 1841.53,2012.61 1849,2036.5C 1867.87,2089.14 1893.37,2138.14 1925.5,2183.5C 1925.5,2183.83 1925.5,2184.17 1925.5,2184.5C 1903.69,2208.81 1882.36,2233.65 1861.5,2259C 1916.47,2305.99 1971.3,2352.83 2026,2399.5C 2046.33,2376.67 2066.5,2353.67 2086.5,2330.5C 2087.17,2330.5 2087.5,2330.17 2087.5,2329.5C 2160.67,2366.49 2238,2379.32 2319.5,2368C 2320.42,2367.72 2321.08,2367.22 2321.5,2366.5C 2325.12,2369.78 2328.79,2373.12 2332.5,2376.5C 2337.53,2371.81 2342.19,2366.81 2346.5,2361.5C 2358.14,2359.45 2369.47,2356.29 2380.5,2352C 2407,2341.91 2431.67,2329.24 2454.5,2314C 2465.04,2306.28 2475.37,2298.45 2485.5,2290.5C 2481.22,2342.25 2476.22,2393.92 2470.5,2445.5C 2469.48,2445.86 2468.81,2446.52 2468.5,2447.5C 2457.76,2454.21 2446.42,2459.87 2434.5,2464.5C 2400.56,2435.74 2366.73,2406.74 2333,2377.5C 2296.2,2420.31 2259.36,2463.14 2222.5,2506C 2220.62,2506.2 2218.95,2506.7 2217.5,2507.5C 2203.5,2507.89 2189.5,2508.23 2175.5,2508.5C 2167.49,2508.67 2159.49,2508.5 2151.5,2508C 2109.71,2472.47 2068.05,2436.97 2026.5,2401.5C 2001.57,2429.29 1977.07,2457.62 1953,2486.5C 1950.47,2489.89 1947.3,2492.22 1943.5,2493.5C 1905.48,2487.22 1868.82,2476.38 1833.5,2461C 1823.65,2456.24 1814.31,2450.74 1805.5,2444.5C 1804.2,2408.13 1802.2,2371.79 1799.5,2335.5C 1799.34,2333.47 1799.5,2331.47 1800,2329.5C 1820.51,2306.32 1840.68,2282.82 1860.5,2259C 1836.4,2237.13 1811.73,2215.96 1786.5,2195.5C 1781.13,2140.8 1775.46,2086.13 1769.5,2031.5C 1788.83,2009.17 1808.17,1986.83 1827.5,1964.5 Z"/></g>
<g><path style="opacity:1" fill="#95120c" d="M 2434.5,2464.5 C 2398.15,2479.18 2360.48,2489.68 2321.5,2496C 2287,2501.33 2252.33,2505.17 2217.5,2507.5C 2218.95,2506.7 2220.62,2506.2 2222.5,2506C 2259.36,2463.14 2296.2,2420.31 2333,2377.5C 2366.73,2406.74 2400.56,2435.74 2434.5,2464.5 Z"/></g>
<g><path style="opacity:1" fill="#95120c" d="M 2175.5,2508.5 C 2115.83,2510.73 2056.17,2508.56 1996.5,2502C 1978.58,2499.89 1960.91,2497.06 1943.5,2493.5C 1947.3,2492.22 1950.47,2489.89 1953,2486.5C 1977.07,2457.62 2001.57,2429.29 2026.5,2401.5C 2068.05,2436.97 2109.71,2472.47 2151.5,2508C 2159.49,2508.5 2167.49,2508.67 2175.5,2508.5 Z"/></g>
<g><path style="opacity:1" fill="#001225" d="M 1805.5,2444.5 C 1814.31,2450.74 1823.65,2456.24 1833.5,2461C 1868.82,2476.38 1905.48,2487.22 1943.5,2493.5C 1960.91,2497.06 1978.58,2499.89 1996.5,2502C 2056.17,2508.56 2115.83,2510.73 2175.5,2508.5C 2189.5,2508.23 2203.5,2507.89 2217.5,2507.5C 2252.33,2505.17 2287,2501.33 2321.5,2496C 2360.48,2489.68 2398.15,2479.18 2434.5,2464.5C 2446.42,2459.87 2457.76,2454.21 2468.5,2447.5C 2472.85,2456.05 2476.35,2465.05 2479,2474.5C 2489.7,2519.66 2497.7,2565.33 2503,2611.5C 2515.52,2732.16 2521.52,2853.16 2521,2974.5C 2522.92,3023.18 2525.08,3071.85 2527.5,3120.5C 2528.99,3161.66 2530.66,3202.66 2532.5,3243.5C 2538.44,3404.35 2535.28,3565.02 2523,3725.5C 2513.88,3816.3 2503.72,3906.97 2492.5,3997.5C 2490.19,4011.32 2488.19,4025.32 2486.5,4039.5C 2456.63,4264.8 2420.96,4489.14 2379.5,4712.5C 2353.71,4676.7 2335.87,4637.03 2326,4593.5C 2317.72,4555.95 2312.72,4517.95 2311,4479.5C 2308.9,4404.07 2309.56,4328.74 2313,4253.5C 2316.63,4179.08 2320.8,4104.92 2325.5,4031C 2337.48,3883.62 2344.82,3735.95 2347.5,3588C 2349.19,3466.83 2336.02,3347.33 2308,3229.5C 2297.63,3187.06 2283.3,3146.06 2265,3106.5C 2246.42,3066.86 2220.25,3033.02 2186.5,3005C 2174.22,2995.36 2160.89,2987.53 2146.5,2981.5C 2146.5,2982.83 2146.5,2984.17 2146.5,2985.5C 2145.55,2984.08 2145.22,2982.41 2145.5,2980.5C 2148.16,2980.1 2150.66,2980.1 2153,2980.5C 2154.17,2979.99 2155,2979.16 2155.5,2978C 2154.17,2963.5 2154.17,2949 2155.5,2934.5C 2155.5,2934.17 2155.5,2933.83 2155.5,2933.5C 2167.3,2931.37 2178.97,2928.7 2190.5,2925.5C 2191.67,2833.5 2191.83,2741.5 2191,2649.5C 2180.33,2728.96 2169.83,2806.96 2159.5,2883.5C 2159.28,2885.38 2158.62,2887.05 2157.5,2888.5C 2159.37,2895.15 2157.71,2900.65 2152.5,2905C 2134.76,2918.76 2117.1,2932.42 2099.5,2946C 2098.3,2946.65 2098.3,2947.15 2099.5,2947.5C 2101.41,2946.65 2103.41,2946.32 2105.5,2946.5C 2098.19,2956.66 2091.02,2966.99 2084,2977.5C 2043.96,3053.61 2013.96,3133.61 1994,3217.5C 1987.27,3248.55 1982.27,3279.88 1979,3311.5C 1970.41,3405.31 1965.08,3499.31 1963,3593.5C 1959.95,3699.5 1959.78,3805.5 1962.5,3911.5C 1962,3939.51 1961.33,3967.51 1960.5,3995.5C 1960.59,3997.23 1960.92,3998.89 1961.5,4000.5C 1957.14,4117.46 1952.97,4234.46 1949,4351.5C 1948,4426.17 1947,4500.83 1946,4575.5C 1944.86,4622.13 1940.7,4668.46 1933.5,4714.5C 1917.83,4714.5 1902.17,4714.5 1886.5,4714.5C 1832.41,4418.73 1788.91,4121.4 1756,3822.5C 1751.3,3774.88 1747.13,3727.21 1743.5,3679.5C 1741.77,3648.11 1740.1,3616.78 1738.5,3585.5C 1735.76,3476.49 1736.09,3367.49 1739.5,3258.5C 1741.1,3228.18 1742.43,3197.85 1743.5,3167.5C 1750.06,3058.26 1754.23,2948.92 1756,2839.5C 1760.16,2742.04 1769.16,2645.04 1783,2548.5C 1788.88,2513.48 1796.38,2478.82 1805.5,2444.5 Z"/></g>
<g><path style="opacity:1" fill="#000619" d="M 2155.5,2933.5 C 2155.5,2930.83 2155.5,2928.17 2155.5,2925.5C 2145.05,2926.76 2134.72,2928.6 2124.5,2931C 2118.29,2934.61 2112.63,2938.94 2107.5,2944C 2108.42,2944.28 2109.08,2944.78 2109.5,2945.5C 2107.9,2945.23 2106.57,2945.57 2105.5,2946.5C 2103.41,2946.32 2101.41,2946.65 2099.5,2947.5C 2098.3,2947.15 2098.3,2946.65 2099.5,2946C 2117.1,2932.42 2134.76,2918.76 2152.5,2905C 2157.71,2900.65 2159.37,2895.15 2157.5,2888.5C 2158.62,2887.05 2159.28,2885.38 2159.5,2883.5C 2169.83,2806.96 2180.33,2728.96 2191,2649.5C 2191.83,2741.5 2191.67,2833.5 2190.5,2925.5C 2178.97,2928.7 2167.3,2931.37 2155.5,2933.5 Z"/></g>
<g><path style="opacity:1" fill="#db9c71" d="M 1571.5,2836.5 C 1568.17,2836.5 1564.83,2836.5 1561.5,2836.5C 1553.32,2832.49 1546.82,2826.49 1542,2818.5C 1534.12,2804.87 1527.79,2790.53 1523,2775.5C 1516.31,2752.66 1515.81,2729.66 1521.5,2706.5C 1522.79,2742.32 1531.29,2776.32 1547,2808.5C 1552.2,2820.52 1560.36,2829.86 1571.5,2836.5 Z"/></g>
<g><path style="opacity:1" fill="#db9c72" d="M 2691.5,2840.5 C 2690.83,2840.5 2690.17,2840.5 2689.5,2840.5C 2686.48,2840.66 2683.48,2840.5 2680.5,2840C 2688.28,2835.88 2694.45,2830.05 2699,2822.5C 2718.39,2788.01 2729.05,2751.01 2731,2711.5C 2734.02,2727.02 2735.02,2742.69 2734,2758.5C 2729.69,2780.43 2722.02,2801.1 2711,2820.5C 2706.31,2829.02 2699.81,2835.69 2691.5,2840.5 Z"/></g>
<g><path style="opacity:1" fill="#000612" d="M 2155.5,2933.5 C 2155.5,2933.83 2155.5,2934.17 2155.5,2934.5C 2152.94,2934.98 2150.44,2935.65 2148,2936.5C 2147.67,2936.17 2147.33,2935.83 2147,2935.5C 2141.83,2936.92 2136.66,2938.59 2131.5,2940.5C 2129.94,2939.65 2128.44,2939.99 2127,2941.5C 2125.66,2940.79 2124.32,2941.12 2123,2942.5C 2122.67,2942.17 2122.33,2941.83 2122,2941.5C 2118.17,2942.83 2114,2944.16 2109.5,2945.5C 2109.08,2944.78 2108.42,2944.28 2107.5,2944C 2112.63,2938.94 2118.29,2934.61 2124.5,2931C 2134.72,2928.6 2145.05,2926.76 2155.5,2925.5C 2155.5,2928.17 2155.5,2930.83 2155.5,2933.5 Z"/></g>
<g><path style="opacity:1" fill="#000c1f" d="M 2155.5,2934.5 C 2154.17,2949 2154.17,2963.5 2155.5,2978C 2155,2979.16 2154.17,2979.99 2153,2980.5C 2150.66,2980.1 2148.16,2980.1 2145.5,2980.5C 2136.83,2980.5 2128.17,2980.5 2119.5,2980.5C 2108.69,3115.43 2098.53,3250.43 2089,3385.5C 2082.46,3477.1 2077.13,3568.76 2073,3660.5C 2072.33,3680.83 2072.33,3701.17 2073,3721.5C 2079.77,3776.95 2083.77,3832.61 2085,3888.5C 2085.59,3940.17 2085.42,3991.84 2084.5,4043.5C 2083.16,4089.02 2081.49,4134.69 2079.5,4180.5C 2072.13,4327.82 2065.13,4475.15 2058.5,4622.5C 2056.8,4651.98 2055.8,4681.65 2055.5,4711.5C 2055.5,4712.83 2055.5,4714.17 2055.5,4715.5C 2052.5,4715.5 2049.5,4715.5 2046.5,4715.5C 2032.83,4715.5 2019.17,4715.5 2005.5,4715.5C 1966.5,4715.5 1927.5,4715.5 1888.5,4715.5C 1887.51,4715.67 1886.84,4715.34 1886.5,4714.5C 1902.17,4714.5 1917.83,4714.5 1933.5,4714.5C 1940.7,4668.46 1944.86,4622.13 1946,4575.5C 1947,4500.83 1948,4426.17 1949,4351.5C 1952.97,4234.46 1957.14,4117.46 1961.5,4000.5C 1960.92,3998.89 1960.59,3997.23 1960.5,3995.5C 1961.33,3967.51 1962,3939.51 1962.5,3911.5C 1959.78,3805.5 1959.95,3699.5 1963,3593.5C 1965.08,3499.31 1970.41,3405.31 1979,3311.5C 1982.27,3279.88 1987.27,3248.55 1994,3217.5C 2013.96,3133.61 2043.96,3053.61 2084,2977.5C 2091.02,2966.99 2098.19,2956.66 2105.5,2946.5C 2106.57,2945.57 2107.9,2945.23 2109.5,2945.5C 2114,2944.16 2118.17,2942.83 2122,2941.5C 2122.33,2941.83 2122.67,2942.17 2123,2942.5C 2124.32,2941.12 2125.66,2940.79 2127,2941.5C 2128.44,2939.99 2129.94,2939.65 2131.5,2940.5C 2136.66,2938.59 2141.83,2936.92 2147,2935.5C 2147.33,2935.83 2147.67,2936.17 2148,2936.5C 2150.44,2935.65 2152.94,2934.98 2155.5,2934.5 Z"/></g>
<g><path style="opacity:1" fill="#50aea1" d="M 2145.5,2980.5 C 2145.22,2982.41 2145.55,2984.08 2146.5,2985.5C 2148.71,3010.46 2150.37,3035.46 2151.5,3060.5C 2151.78,3069.54 2151.78,3078.2 2151.5,3086.5C 2151.78,3089.13 2152.45,3091.63 2153.5,3094C 2152.43,3094.74 2151.76,3095.74 2151.5,3097C 2151.77,3108.4 2151.77,3119.9 2151.5,3131.5C 2152.32,3133.11 2153.65,3133.78 2155.5,3133.5C 2155.72,3134.68 2155.39,3135.68 2154.5,3136.5C 2154.17,3135.83 2153.83,3135.17 2153.5,3134.5C 2152.06,3136.32 2151.56,3138.32 2152,3140.5C 2153.05,3139.48 2154.22,3139.32 2155.5,3140C 2155.02,3143.46 2153.85,3143.96 2152,3141.5C 2151.73,3149.5 2151.57,3157 2151.5,3164C 2154.09,3163.96 2156.42,3165.12 2158.5,3167.5C 2159.17,3170.31 2159.83,3172.97 2160.5,3175.5C 2166.92,3254.75 2172.59,3334.08 2177.5,3413.5C 2177.65,3414.55 2177.48,3415.55 2177,3416.5C 2176.35,3415.3 2175.85,3415.3 2175.5,3416.5C 2176.24,3419.79 2176.24,3423.46 2175.5,3427.5C 2175.67,3429.5 2175.83,3431.5 2176,3433.5C 2176.84,3430.06 2177.67,3429.89 2178.5,3433C 2178.3,3436.29 2177.47,3436.79 2176,3434.5C 2175.33,3436.17 2175.33,3437.83 2176,3439.5C 2177.13,3438.4 2177.96,3438.73 2178.5,3440.5C 2178.09,3443.41 2177.09,3446.08 2175.5,3448.5C 2175.98,3449.48 2176.64,3450.31 2177.5,3451C 2177.4,3454.64 2176.73,3457.64 2175.5,3460C 2176.83,3460.67 2177.83,3461.67 2178.5,3463C 2175.38,3464.42 2175.04,3466.09 2177.5,3468C 2176.83,3468.33 2176.17,3468.67 2175.5,3469C 2176.57,3470.25 2176.57,3471.58 2175.5,3473C 2175.76,3474.26 2176.43,3475.26 2177.5,3476C 2175.48,3477.56 2175.15,3479.39 2176.5,3481.5C 2177.68,3480.15 2178.68,3480.31 2179.5,3482C 2178.24,3483.11 2177.07,3483.28 2176,3482.5C 2176.18,3486.52 2176.02,3490.52 2175.5,3494.5C 2176.69,3495.85 2178.02,3497.02 2179.5,3498C 2178.21,3498.49 2176.87,3498.66 2175.5,3498.5C 2175.47,3500.58 2176.14,3502.42 2177.5,3504C 2176.69,3504.31 2176.03,3504.81 2175.5,3505.5C 2176.33,3507.13 2176.5,3508.8 2176,3510.5C 2178.38,3511.44 2180.88,3511.77 2183.5,3511.5C 2188.72,3577.01 2191.22,3642.68 2191,3708.5C 2186.43,3737.33 2183.43,3766.33 2182,3795.5C 2179.63,3827.13 2178.46,3858.79 2178.5,3890.5C 2177.91,3914.69 2176.91,3939.02 2175.5,3963.5C 2175.93,3968.66 2175.93,3973.66 2175.5,3978.5C 2175.82,3979.65 2176.48,3980.48 2177.5,3981C 2176.27,3982.7 2175.6,3984.7 2175.5,3987C 2175.6,3992.18 2175.6,3997.34 2175.5,4002.5C 2175.61,4004.64 2176.28,4006.47 2177.5,4008C 2175.01,4010.24 2175.01,4012.58 2177.5,4015C 2176.57,4015.39 2175.91,4016.05 2175.5,4017C 2176.67,4027.94 2176.67,4038.6 2175.5,4049C 2175.67,4050.83 2175.83,4052.67 2176,4054.5C 2176.56,4052.4 2177.06,4052.24 2177.5,4054C 2177.24,4055.26 2176.57,4056.26 2175.5,4057C 2175.61,4059.95 2175.61,4062.95 2175.5,4066C 2176.04,4068.1 2177.04,4068.94 2178.5,4068.5C 2177.76,4070.35 2176.76,4071.02 2175.5,4070.5C 2178.06,4072.12 2178.06,4073.62 2175.5,4075C 2175.59,4077.54 2175.59,4080.04 2175.5,4082.5C 2176.26,4082.91 2177.26,4083.08 2178.5,4083C 2177.77,4084.4 2177.27,4085.9 2177,4087.5C 2176.67,4086.83 2176.33,4086.17 2176,4085.5C 2175.19,4087.9 2175.35,4090.24 2176.5,4092.5C 2177.8,4091.91 2178.63,4090.91 2179,4089.5C 2180.26,4091.75 2179.59,4093.75 2177,4095.5C 2176.67,4095.17 2176.33,4094.83 2176,4094.5C 2175.22,4096.81 2175.72,4098.81 2177.5,4100.5C 2177.02,4101.48 2176.36,4102.31 2175.5,4103C 2176.11,4108.51 2176.11,4113.84 2175.5,4119C 2175.67,4119.83 2175.83,4120.67 2176,4121.5C 2176.82,4119.21 2177.49,4116.88 2178,4114.5C 2179.72,4116.75 2180.89,4119.08 2181.5,4121.5C 2180.51,4122.19 2179.51,4123.36 2178.5,4125C 2179.52,4126.05 2179.68,4127.22 2179,4128.5C 2178,4128.5 2177,4128.5 2176,4128.5C 2175.33,4129.83 2175.33,4131.17 2176,4132.5C 2176.67,4131.17 2177.33,4131.17 2178,4132.5C 2179.39,4128.73 2180.39,4128.73 2181,4132.5C 2181.38,4131.94 2181.88,4131.61 2182.5,4131.5C 2189.67,4279.84 2197.17,4428.18 2205,4576.5C 2207.25,4622.81 2208.41,4669.14 2208.5,4715.5C 2204.37,4750.21 2206.37,4784.55 2214.5,4818.5C 2156.15,4817.37 2097.81,4817.37 2039.5,4818.5C 2039.5,4817.17 2039.5,4815.83 2039.5,4814.5C 2048.58,4782 2050.91,4749 2046.5,4715.5C 2049.5,4715.5 2052.5,4715.5 2055.5,4715.5C 2055.5,4714.17 2055.5,4712.83 2055.5,4711.5C 2058.05,4711.2 2060.55,4711.2 2063,4711.5C 2063.17,4711 2063.33,4710.5 2063.5,4710C 2063.47,4704.6 2063.3,4699.1 2063,4693.5C 2062.67,4694.17 2062.33,4694.83 2062,4695.5C 2061.15,4693.99 2060.32,4692.49 2059.5,4691C 2060.9,4689.35 2060.56,4688.02 2058.5,4687C 2060.41,4686.55 2061.58,4687.39 2062,4689.5C 2063.83,4687.27 2063.66,4685.1 2061.5,4683C 2061.94,4681.24 2062.44,4681.4 2063,4683.5C 2063.17,4682.83 2063.33,4682.17 2063.5,4681.5C 2063.05,4676.59 2063.05,4671.92 2063.5,4667.5C 2063.17,4667.17 2062.83,4666.83 2062.5,4666.5C 2061.72,4667.73 2061.22,4669.06 2061,4670.5C 2060.31,4668.43 2060.48,4666.43 2061.5,4664.5C 2060.62,4663.75 2059.62,4663.25 2058.5,4663C 2059.76,4661.89 2060.93,4661.72 2062,4662.5C 2062.37,4661.58 2062.87,4660.75 2063.5,4660C 2062.17,4659.33 2062.17,4658.67 2063.5,4658C 2062.67,4657.09 2061.67,4656.42 2060.5,4656C 2063.55,4654.27 2064.21,4651.77 2062.5,4648.5C 2062.47,4649.99 2061.97,4651.32 2061,4652.5C 2060.73,4650.9 2060.23,4649.4 2059.5,4648C 2060.55,4646.88 2061.72,4646.38 2063,4646.5C 2063.96,4643.62 2063.46,4641.12 2061.5,4639C 2062.17,4638.67 2062.83,4638.33 2063.5,4638C 2062.25,4633.38 2062.25,4628.55 2063.5,4623.5C 2059.8,4622.87 2058.97,4623.87 2061,4626.5C 2061.33,4625.83 2061.67,4625.17 2062,4624.5C 2062.67,4626.17 2062.67,4627.83 2062,4629.5C 2059.76,4627.69 2058.6,4625.36 2058.5,4622.5C 2065.13,4475.15 2072.13,4327.82 2079.5,4180.5C 2080.16,4178.96 2080.83,4177.29 2081.5,4175.5C 2082.17,4175.17 2082.83,4174.83 2083.5,4174.5C 2084.13,4177.24 2084.97,4180.24 2086,4183.5C 2086.69,4182.97 2087.19,4182.31 2087.5,4181.5C 2087.37,4178.31 2086.37,4175.15 2084.5,4172C 2085,4170 2086,4168.34 2087.5,4167C 2087.37,4165.03 2087.21,4162.86 2087,4160.5C 2085.09,4159.32 2085.25,4158.32 2087.5,4157.5C 2087.36,4152.57 2087.36,4147.74 2087.5,4143C 2085.01,4142.37 2085.01,4141.54 2087.5,4140.5C 2086.62,4139.75 2085.62,4139.25 2084.5,4139C 2085.71,4138.21 2086.71,4137.55 2087.5,4137C 2087.05,4135.71 2086.38,4134.55 2085.5,4133.5C 2086.17,4132.83 2086.83,4132.17 2087.5,4131.5C 2087.46,4123.26 2087.46,4114.76 2087.5,4106C 2086.78,4104.01 2085.78,4102.18 2084.5,4100.5C 2085.88,4097.92 2086.72,4098.26 2087,4101.5C 2087.17,4100.83 2087.33,4100.17 2087.5,4099.5C 2087.21,4096.54 2087.21,4093.54 2087.5,4090.5C 2087.21,4088.96 2086.54,4087.62 2085.5,4086.5C 2086.38,4085.45 2087.05,4084.29 2087.5,4083C 2087.03,4075.77 2087.03,4067.77 2087.5,4059C 2087.81,4056.34 2086.98,4054.17 2085,4052.5C 2084.5,4049.52 2084.34,4046.52 2084.5,4043.5C 2085.42,3991.84 2085.59,3940.17 2085,3888.5C 2083.77,3832.61 2079.77,3776.95 2073,3721.5C 2072.33,3701.17 2072.33,3680.83 2073,3660.5C 2077.13,3568.76 2082.46,3477.1 2089,3385.5C 2098.53,3250.43 2108.69,3115.43 2119.5,2980.5C 2128.17,2980.5 2136.83,2980.5 2145.5,2980.5 Z"/></g>
<g><path style="opacity:1" fill="#000c1f" d="M 2379.5,4712.5 C 2379.5,4713.5 2379.5,4714.5 2379.5,4715.5C 2376.17,4715.5 2372.83,4715.5 2369.5,4715.5C 2333.5,4715.5 2297.5,4715.5 2261.5,4715.5C 2243.83,4715.5 2226.17,4715.5 2208.5,4715.5C 2208.41,4669.14 2207.25,4622.81 2205,4576.5C 2197.17,4428.18 2189.67,4279.84 2182.5,4131.5C 2179.25,4051.2 2177.91,3970.87 2178.5,3890.5C 2178.46,3858.79 2179.63,3827.13 2182,3795.5C 2183.43,3766.33 2186.43,3737.33 2191,3708.5C 2191.22,3642.68 2188.72,3577.01 2183.5,3511.5C 2182.36,3478.63 2180.36,3445.96 2177.5,3413.5C 2172.59,3334.08 2166.92,3254.75 2160.5,3175.5C 2158.05,3136.98 2155.05,3098.65 2151.5,3060.5C 2150.37,3035.46 2148.71,3010.46 2146.5,2985.5C 2146.5,2984.17 2146.5,2982.83 2146.5,2981.5C 2160.89,2987.53 2174.22,2995.36 2186.5,3005C 2220.25,3033.02 2246.42,3066.86 2265,3106.5C 2283.3,3146.06 2297.63,3187.06 2308,3229.5C 2336.02,3347.33 2349.19,3466.83 2347.5,3588C 2344.82,3735.95 2337.48,3883.62 2325.5,4031C 2320.8,4104.92 2316.63,4179.08 2313,4253.5C 2309.56,4328.74 2308.9,4404.07 2311,4479.5C 2312.72,4517.95 2317.72,4555.95 2326,4593.5C 2335.87,4637.03 2353.71,4676.7 2379.5,4712.5 Z"/></g>
<g><path style="opacity:1" fill="#4da39c" d="M 2151.5,3060.5 C 2155.05,3098.65 2158.05,3136.98 2160.5,3175.5C 2159.83,3172.97 2159.17,3170.31 2158.5,3167.5C 2156.42,3165.12 2154.09,3163.96 2151.5,3164C 2151.57,3157 2151.73,3149.5 2152,3141.5C 2153.85,3143.96 2155.02,3143.46 2155.5,3140C 2154.22,3139.32 2153.05,3139.48 2152,3140.5C 2151.56,3138.32 2152.06,3136.32 2153.5,3134.5C 2153.83,3135.17 2154.17,3135.83 2154.5,3136.5C 2155.39,3135.68 2155.72,3134.68 2155.5,3133.5C 2153.65,3133.78 2152.32,3133.11 2151.5,3131.5C 2151.77,3119.9 2151.77,3108.4 2151.5,3097C 2151.76,3095.74 2152.43,3094.74 2153.5,3094C 2152.45,3091.63 2151.78,3089.13 2151.5,3086.5C 2151.78,3078.2 2151.78,3069.54 2151.5,3060.5 Z"/></g>
<g><path style="opacity:1" fill="#4ca19b" d="M 2532.5,3243.5 C 2530.66,3202.66 2528.99,3161.66 2527.5,3120.5C 2528.46,3120.95 2529.29,3121.62 2530,3122.5C 2529.92,3121.26 2530.09,3120.26 2530.5,3119.5C 2531.51,3123.69 2532.18,3127.69 2532.5,3131.5C 2533.71,3128.34 2533.71,3125.17 2532.5,3122C 2533.39,3119.19 2534.39,3119.02 2535.5,3121.5C 2535.06,3125.27 2535.06,3128.77 2535.5,3132C 2532.64,3133.43 2532.14,3135.26 2534,3137.5C 2534.33,3137.17 2534.67,3136.83 2535,3136.5C 2535.17,3137.67 2535.33,3138.83 2535.5,3140C 2534.64,3143.86 2534.64,3147.69 2535.5,3151.5C 2534.83,3152.5 2534.17,3153.5 2533.5,3154.5C 2534.17,3155.5 2534.83,3156.5 2535.5,3157.5C 2534.36,3158.43 2534.36,3159.26 2535.5,3160C 2534.83,3160.33 2534.17,3160.67 2533.5,3161C 2535.92,3163.11 2535.92,3165.11 2533.5,3167C 2534.17,3167.33 2534.83,3167.67 2535.5,3168C 2535.31,3169.43 2535.31,3170.93 2535.5,3172.5C 2534.91,3173.8 2533.91,3174.63 2532.5,3175C 2533.25,3176.49 2534.09,3176.65 2535,3175.5C 2535.17,3176.17 2535.33,3176.83 2535.5,3177.5C 2534.8,3180.18 2534.8,3183.01 2535.5,3186C 2533.32,3188.98 2533.32,3191.81 2535.5,3194.5C 2534.91,3195.8 2533.91,3196.63 2532.5,3197C 2533.62,3197.25 2534.62,3197.75 2535.5,3198.5C 2534.29,3199.72 2534.29,3200.89 2535.5,3202C 2534.55,3202.48 2533.55,3202.65 2532.5,3202.5C 2531.54,3199.74 2531.38,3200.74 2532,3205.5C 2532.71,3204.03 2533.88,3203.36 2535.5,3203.5C 2535.66,3205.2 2535.49,3206.87 2535,3208.5C 2534.11,3207.29 2533.27,3207.29 2532.5,3208.5C 2533.78,3210.18 2534.78,3212.01 2535.5,3214C 2534.72,3215.54 2534.72,3217.21 2535.5,3219C 2535.05,3220.45 2534.39,3221.78 2533.5,3223C 2534.42,3224.15 2534.42,3225.15 2533.5,3226C 2534.17,3226.33 2534.83,3226.67 2535.5,3227C 2534.87,3229.36 2534.87,3231.52 2535.5,3233.5C 2534.68,3234.39 2533.68,3234.72 2532.5,3234.5C 2532.5,3237.5 2532.5,3240.5 2532.5,3243.5 Z"/></g>
<g><path style="opacity:1" fill="#4da49d" d="M 1743.5,3167.5 C 1742.43,3197.85 1741.1,3228.18 1739.5,3258.5C 1738.71,3259.61 1738.21,3260.94 1738,3262.5C 1736.92,3260.93 1736.09,3259.27 1735.5,3257.5C 1737.69,3254.68 1737.69,3251.51 1735.5,3248C 1738.17,3247.33 1738.17,3246.67 1735.5,3246C 1735.52,3243.35 1735.52,3240.68 1735.5,3238C 1736.38,3236.9 1737.38,3236.4 1738.5,3236.5C 1737.68,3235.61 1736.68,3235.28 1735.5,3235.5C 1736.13,3231.44 1736.13,3227.44 1735.5,3223.5C 1735.94,3221.24 1736.61,3219.07 1737.5,3217C 1734.92,3213.86 1735.25,3210.86 1738.5,3208C 1737.66,3206.33 1738.16,3206.17 1740,3207.5C 1740.67,3205.83 1740.67,3204.17 1740,3202.5C 1739.33,3206.5 1738.67,3206.5 1738,3202.5C 1737.09,3203.33 1736.42,3204.33 1736,3205.5C 1735.63,3202.11 1736.8,3199.28 1739.5,3197C 1737.89,3196.34 1736.73,3196.84 1736,3198.5C 1735.33,3195.17 1735.33,3191.83 1736,3188.5C 1736.33,3189.5 1736.67,3190.5 1737,3191.5C 1737.25,3189.57 1737.75,3187.73 1738.5,3186C 1735.54,3185.16 1735.2,3184.16 1737.5,3183C 1736.45,3181.61 1736.28,3180.11 1737,3178.5C 1737.65,3179.7 1738.15,3179.7 1738.5,3178.5C 1737.36,3177.57 1737.36,3176.74 1738.5,3176C 1737.75,3174.51 1736.91,3174.35 1736,3175.5C 1735.33,3174.5 1735.33,3173.5 1736,3172.5C 1736.89,3173.89 1737.39,3173.72 1737.5,3172C 1737.11,3170.99 1736.44,3170.49 1735.5,3170.5C 1736.51,3169.32 1737.68,3168.32 1739,3167.5C 1739.95,3167.91 1740.61,3168.57 1741,3169.5C 1741.42,3168.24 1742.25,3167.58 1743.5,3167.5 Z"/></g>
<g><path style="opacity:1" fill="#4ea49d" d="M 2177.5,3413.5 C 2180.36,3445.96 2182.36,3478.63 2183.5,3511.5C 2180.88,3511.77 2178.38,3511.44 2176,3510.5C 2176.5,3508.8 2176.33,3507.13 2175.5,3505.5C 2176.03,3504.81 2176.69,3504.31 2177.5,3504C 2176.14,3502.42 2175.47,3500.58 2175.5,3498.5C 2176.87,3498.66 2178.21,3498.49 2179.5,3498C 2178.02,3497.02 2176.69,3495.85 2175.5,3494.5C 2176.02,3490.52 2176.18,3486.52 2176,3482.5C 2177.07,3483.28 2178.24,3483.11 2179.5,3482C 2178.68,3480.31 2177.68,3480.15 2176.5,3481.5C 2175.15,3479.39 2175.48,3477.56 2177.5,3476C 2176.43,3475.26 2175.76,3474.26 2175.5,3473C 2176.57,3471.58 2176.57,3470.25 2175.5,3469C 2176.17,3468.67 2176.83,3468.33 2177.5,3468C 2175.04,3466.09 2175.38,3464.42 2178.5,3463C 2177.83,3461.67 2176.83,3460.67 2175.5,3460C 2176.73,3457.64 2177.4,3454.64 2177.5,3451C 2176.64,3450.31 2175.98,3449.48 2175.5,3448.5C 2177.09,3446.08 2178.09,3443.41 2178.5,3440.5C 2177.96,3438.73 2177.13,3438.4 2176,3439.5C 2175.33,3437.83 2175.33,3436.17 2176,3434.5C 2177.47,3436.79 2178.3,3436.29 2178.5,3433C 2177.67,3429.89 2176.84,3430.06 2176,3433.5C 2175.83,3431.5 2175.67,3429.5 2175.5,3427.5C 2176.24,3423.46 2176.24,3419.79 2175.5,3416.5C 2175.85,3415.3 2176.35,3415.3 2177,3416.5C 2177.48,3415.55 2177.65,3414.55 2177.5,3413.5 Z"/></g>
<g><path style="opacity:1" fill="#4ca39c" d="M 1738.5,3585.5 C 1740.1,3616.78 1741.77,3648.11 1743.5,3679.5C 1741.42,3679.38 1739.92,3678.38 1739,3676.5C 1738.58,3678.61 1737.41,3679.45 1735.5,3679C 1736.6,3675.06 1736.76,3670.89 1736,3666.5C 1736.33,3668.17 1736.67,3669.83 1737,3671.5C 1737.2,3669.6 1738.03,3668.1 1739.5,3667C 1737.34,3665.24 1737.17,3663.4 1739,3661.5C 1739.56,3663.6 1740.06,3663.76 1740.5,3662C 1739.42,3660.63 1738.59,3659.13 1738,3657.5C 1737.11,3658.71 1736.27,3658.71 1735.5,3657.5C 1738.36,3656.69 1738.86,3655.36 1737,3653.5C 1736.67,3654.17 1736.33,3654.83 1736,3655.5C 1735.83,3654.33 1735.67,3653.17 1735.5,3652C 1736.57,3648.73 1736.57,3645.73 1735.5,3643C 1735.76,3641.74 1736.43,3640.74 1737.5,3640C 1736.02,3638.7 1735.35,3637.03 1735.5,3635C 1736.24,3632.56 1736.24,3630.23 1735.5,3628C 1738.17,3627.33 1738.17,3626.67 1735.5,3626C 1737.89,3624.69 1737.89,3623.69 1735.5,3623C 1735.91,3621.46 1735.91,3619.8 1735.5,3618C 1737.78,3615.36 1737.78,3612.86 1735.5,3610.5C 1735.76,3606.76 1735.76,3602.76 1735.5,3598.5C 1736.5,3598.5 1737.5,3598.5 1738.5,3598.5C 1738.79,3596.71 1738.45,3595.05 1737.5,3593.5C 1736.71,3594.07 1736.71,3594.9 1737.5,3596C 1737.15,3597.26 1736.48,3597.59 1735.5,3597C 1736.4,3593.88 1736.4,3590.88 1735.5,3588C 1736.37,3586.96 1737.37,3586.12 1738.5,3585.5 Z"/></g>
<g><path style="opacity:1" fill="#4ca29c" d="M 2492.5,3997.5 C 2493.56,4001.33 2494.4,4001.33 2495,3997.5C 2496.02,4001.32 2495.52,4004.82 2493.5,4008C 2494.8,4008.8 2495.47,4009.97 2495.5,4011.5C 2492.89,4013.18 2492.89,4015.68 2495.5,4019C 2494.02,4021.15 2492.02,4022.48 2489.5,4023C 2490.58,4025.08 2491.24,4026.92 2491.5,4028.5C 2493.84,4027.41 2493.84,4026.07 2491.5,4024.5C 2492.27,4023.29 2493.11,4023.29 2494,4024.5C 2495,4022.06 2495.5,4022.4 2495.5,4025.5C 2495.21,4027.04 2494.54,4028.38 2493.5,4029.5C 2495.34,4031.53 2495.84,4033.86 2495,4036.5C 2493.64,4035.74 2492.47,4036.24 2491.5,4038C 2492.17,4038.33 2492.83,4038.67 2493.5,4039C 2491.19,4039.5 2488.86,4039.66 2486.5,4039.5C 2488.19,4025.32 2490.19,4011.32 2492.5,3997.5 Z"/></g>
<g><path style="opacity:1" fill="#489a96" d="M 2178.5,3890.5 C 2177.91,3970.87 2179.25,4051.2 2182.5,4131.5C 2181.88,4131.61 2181.38,4131.94 2181,4132.5C 2180.39,4128.73 2179.39,4128.73 2178,4132.5C 2177.33,4131.17 2176.67,4131.17 2176,4132.5C 2175.33,4131.17 2175.33,4129.83 2176,4128.5C 2177,4128.5 2178,4128.5 2179,4128.5C 2179.68,4127.22 2179.52,4126.05 2178.5,4125C 2179.51,4123.36 2180.51,4122.19 2181.5,4121.5C 2180.89,4119.08 2179.72,4116.75 2178,4114.5C 2177.49,4116.88 2176.82,4119.21 2176,4121.5C 2175.83,4120.67 2175.67,4119.83 2175.5,4119C 2176.11,4113.84 2176.11,4108.51 2175.5,4103C 2176.36,4102.31 2177.02,4101.48 2177.5,4100.5C 2175.72,4098.81 2175.22,4096.81 2176,4094.5C 2176.33,4094.83 2176.67,4095.17 2177,4095.5C 2179.59,4093.75 2180.26,4091.75 2179,4089.5C 2178.63,4090.91 2177.8,4091.91 2176.5,4092.5C 2175.35,4090.24 2175.19,4087.9 2176,4085.5C 2176.33,4086.17 2176.67,4086.83 2177,4087.5C 2177.27,4085.9 2177.77,4084.4 2178.5,4083C 2177.26,4083.08 2176.26,4082.91 2175.5,4082.5C 2175.59,4080.04 2175.59,4077.54 2175.5,4075C 2178.06,4073.62 2178.06,4072.12 2175.5,4070.5C 2176.76,4071.02 2177.76,4070.35 2178.5,4068.5C 2177.04,4068.94 2176.04,4068.1 2175.5,4066C 2175.61,4062.95 2175.61,4059.95 2175.5,4057C 2176.57,4056.26 2177.24,4055.26 2177.5,4054C 2177.06,4052.24 2176.56,4052.4 2176,4054.5C 2175.83,4052.67 2175.67,4050.83 2175.5,4049C 2176.67,4038.6 2176.67,4027.94 2175.5,4017C 2175.91,4016.05 2176.57,4015.39 2177.5,4015C 2175.01,4012.58 2175.01,4010.24 2177.5,4008C 2176.28,4006.47 2175.61,4004.64 2175.5,4002.5C 2175.6,3997.34 2175.6,3992.18 2175.5,3987C 2175.6,3984.7 2176.27,3982.7 2177.5,3981C 2176.48,3980.48 2175.82,3979.65 2175.5,3978.5C 2175.93,3973.66 2175.93,3968.66 2175.5,3963.5C 2176.91,3939.02 2177.91,3914.69 2178.5,3890.5 Z"/></g>
<g><path style="opacity:1" fill="#4ca29c" d="M 2084.5,4043.5 C 2084.34,4046.52 2084.5,4049.52 2085,4052.5C 2086.98,4054.17 2087.81,4056.34 2087.5,4059C 2087.03,4067.77 2087.03,4075.77 2087.5,4083C 2087.05,4084.29 2086.38,4085.45 2085.5,4086.5C 2086.54,4087.62 2087.21,4088.96 2087.5,4090.5C 2087.21,4093.54 2087.21,4096.54 2087.5,4099.5C 2087.33,4100.17 2087.17,4100.83 2087,4101.5C 2086.72,4098.26 2085.88,4097.92 2084.5,4100.5C 2085.78,4102.18 2086.78,4104.01 2087.5,4106C 2087.46,4114.76 2087.46,4123.26 2087.5,4131.5C 2086.83,4132.17 2086.17,4132.83 2085.5,4133.5C 2086.38,4134.55 2087.05,4135.71 2087.5,4137C 2086.71,4137.55 2085.71,4138.21 2084.5,4139C 2085.62,4139.25 2086.62,4139.75 2087.5,4140.5C 2085.01,4141.54 2085.01,4142.37 2087.5,4143C 2087.36,4147.74 2087.36,4152.57 2087.5,4157.5C 2085.25,4158.32 2085.09,4159.32 2087,4160.5C 2087.21,4162.86 2087.37,4165.03 2087.5,4167C 2086,4168.34 2085,4170 2084.5,4172C 2086.37,4175.15 2087.37,4178.31 2087.5,4181.5C 2087.19,4182.31 2086.69,4182.97 2086,4183.5C 2084.97,4180.24 2084.13,4177.24 2083.5,4174.5C 2082.83,4174.83 2082.17,4175.17 2081.5,4175.5C 2080.83,4177.29 2080.16,4178.96 2079.5,4180.5C 2081.49,4134.69 2083.16,4089.02 2084.5,4043.5 Z"/></g>
<g><path style="opacity:1" fill="#4da49d" d="M 2058.5,4622.5 C 2058.6,4625.36 2059.76,4627.69 2062,4629.5C 2062.67,4627.83 2062.67,4626.17 2062,4624.5C 2061.67,4625.17 2061.33,4625.83 2061,4626.5C 2058.97,4623.87 2059.8,4622.87 2063.5,4623.5C 2062.25,4628.55 2062.25,4633.38 2063.5,4638C 2062.83,4638.33 2062.17,4638.67 2061.5,4639C 2063.46,4641.12 2063.96,4643.62 2063,4646.5C 2061.72,4646.38 2060.55,4646.88 2059.5,4648C 2060.23,4649.4 2060.73,4650.9 2061,4652.5C 2061.97,4651.32 2062.47,4649.99 2062.5,4648.5C 2064.21,4651.77 2063.55,4654.27 2060.5,4656C 2061.67,4656.42 2062.67,4657.09 2063.5,4658C 2062.17,4658.67 2062.17,4659.33 2063.5,4660C 2062.87,4660.75 2062.37,4661.58 2062,4662.5C 2060.93,4661.72 2059.76,4661.89 2058.5,4663C 2059.62,4663.25 2060.62,4663.75 2061.5,4664.5C 2060.48,4666.43 2060.31,4668.43 2061,4670.5C 2061.22,4669.06 2061.72,4667.73 2062.5,4666.5C 2062.83,4666.83 2063.17,4667.17 2063.5,4667.5C 2063.05,4671.92 2063.05,4676.59 2063.5,4681.5C 2063.33,4682.17 2063.17,4682.83 2063,4683.5C 2062.44,4681.4 2061.94,4681.24 2061.5,4683C 2063.66,4685.1 2063.83,4687.27 2062,4689.5C 2061.58,4687.39 2060.41,4686.55 2058.5,4687C 2060.56,4688.02 2060.9,4689.35 2059.5,4691C 2060.32,4692.49 2061.15,4693.99 2062,4695.5C 2062.33,4694.83 2062.67,4694.17 2063,4693.5C 2063.3,4699.1 2063.47,4704.6 2063.5,4710C 2063.33,4710.5 2063.17,4711 2063,4711.5C 2060.55,4711.2 2058.05,4711.2 2055.5,4711.5C 2055.8,4681.65 2056.8,4651.98 2058.5,4622.5 Z"/></g>
<g><path style="opacity:1" fill="#64380c" d="M 1888.5,4715.5 C 1927.5,4715.5 1966.5,4715.5 2005.5,4715.5C 2005.11,4719.81 2004.44,4724.31 2003.5,4729C 2004.33,4731.71 2004,4734.38 2002.5,4737C 2002.96,4737.41 2003.29,4737.91 2003.5,4738.5C 1996.13,4773.91 1981.13,4805.91 1958.5,4834.5C 1946.29,4848.52 1933.96,4861.68 1921.5,4874C 1898.16,4892.98 1874.16,4911.31 1849.5,4929C 1840.13,4937.7 1830.13,4945.7 1819.5,4953C 1814.69,4956.47 1810.53,4960.64 1807,4965.5C 1806.09,4964.35 1805.25,4964.51 1804.5,4966C 1800.9,4969.3 1797.23,4973.3 1793.5,4978C 1791.28,4979.72 1788.95,4981.22 1786.5,4982.5C 1773.63,4968.09 1766.46,4951.09 1765,4931.5C 1762.47,4908.94 1767.47,4888.27 1780,4869.5C 1790.92,4855.08 1802.76,4841.41 1815.5,4828.5C 1835.96,4808.55 1854.79,4787.21 1872,4764.5C 1879.76,4753.97 1885.1,4742.31 1888,4729.5C 1888.5,4724.85 1888.67,4720.18 1888.5,4715.5 Z"/></g>
<g><path style="opacity:1" fill="#573206" d="M 2005.5,4715.5 C 2019.17,4715.5 2032.83,4715.5 2046.5,4715.5C 2050.91,4749 2048.58,4782 2039.5,4814.5C 2033.6,4833.29 2024.77,4850.62 2013,4866.5C 1970.64,4916.75 1920.14,4956.58 1861.5,4986C 1846.08,4993.94 1829.74,4997.27 1812.5,4996C 1802.53,4993.85 1793.87,4989.35 1786.5,4982.5C 1788.95,4981.22 1791.28,4979.72 1793.5,4978C 1797.23,4973.3 1800.9,4969.3 1804.5,4966C 1805.25,4964.51 1806.09,4964.35 1807,4965.5C 1810.53,4960.64 1814.69,4956.47 1819.5,4953C 1830.13,4945.7 1840.13,4937.7 1849.5,4929C 1874.16,4911.31 1898.16,4892.98 1921.5,4874C 1933.96,4861.68 1946.29,4848.52 1958.5,4834.5C 1981.13,4805.91 1996.13,4773.91 2003.5,4738.5C 2003.29,4737.91 2002.96,4737.41 2002.5,4737C 2004,4734.38 2004.33,4731.71 2003.5,4729C 2004.44,4724.31 2005.11,4719.81 2005.5,4715.5 Z"/></g>
<g><path style="opacity:1" fill="#573206" d="M 2208.5,4715.5 C 2226.17,4715.5 2243.83,4715.5 2261.5,4715.5C 2261.86,4719.1 2261.86,4722.6 2261.5,4726C 2262.57,4733.1 2263.91,4740.1 2265.5,4747C 2264.32,4749.16 2264.65,4751.16 2266.5,4753C 2268.92,4771.38 2273.92,4788.71 2281.5,4805C 2281.17,4805.33 2280.83,4805.67 2280.5,4806C 2297.08,4845.44 2320.25,4881.94 2350,4915.5C 2375.59,4941.93 2405.09,4963.43 2438.5,4980C 2446.17,4983 2453.83,4986 2461.5,4989C 2459.84,4990.83 2457.84,4992.16 2455.5,4993C 2455.73,4993.4 2456.06,4993.57 2456.5,4993.5C 2446.07,4998.61 2435.07,4999.78 2423.5,4997C 2369,4977.75 2320,4949.42 2276.5,4912C 2254.03,4892.86 2236.53,4870.03 2224,4843.5C 2220.97,4835.01 2217.81,4826.67 2214.5,4818.5C 2206.37,4784.55 2204.37,4750.21 2208.5,4715.5 Z"/></g>
<g><path style="opacity:1" fill="#64380c" d="M 2261.5,4715.5 C 2297.5,4715.5 2333.5,4715.5 2369.5,4715.5C 2371.32,4732.13 2376.82,4747.47 2386,4761.5C 2403.51,4786.51 2422.68,4810.18 2443.5,4832.5C 2455.81,4847.65 2467.98,4862.98 2480,4878.5C 2496.18,4905.52 2497.84,4933.52 2485,4962.5C 2479.44,4976.56 2469.94,4986.89 2456.5,4993.5C 2456.06,4993.57 2455.73,4993.4 2455.5,4993C 2457.84,4992.16 2459.84,4990.83 2461.5,4989C 2453.83,4986 2446.17,4983 2438.5,4980C 2405.09,4963.43 2375.59,4941.93 2350,4915.5C 2320.25,4881.94 2297.08,4845.44 2280.5,4806C 2280.83,4805.67 2281.17,4805.33 2281.5,4805C 2273.92,4788.71 2268.92,4771.38 2266.5,4753C 2264.65,4751.16 2264.32,4749.16 2265.5,4747C 2263.91,4740.1 2262.57,4733.1 2261.5,4726C 2261.86,4722.6 2261.86,4719.1 2261.5,4715.5 Z"/></g>
<g><path style="opacity:1" fill="#448f88" d="M 2039.5,4814.5 C 2039.5,4815.83 2039.5,4817.17 2039.5,4818.5C 2097.81,4817.37 2156.15,4817.37 2214.5,4818.5C 2217.81,4826.67 2220.97,4835.01 2224,4843.5C 2236.53,4870.03 2254.03,4892.86 2276.5,4912C 2320,4949.42 2369,4977.75 2423.5,4997C 2435.07,4999.78 2446.07,4998.61 2456.5,4993.5C 2469.94,4986.89 2479.44,4976.56 2485,4962.5C 2497.84,4933.52 2496.18,4905.52 2480,4878.5C 2467.98,4862.98 2455.81,4847.65 2443.5,4832.5C 2515.11,4839.04 2586.11,4849.54 2656.5,4864C 2681.49,4870.35 2706.16,4877.68 2730.5,4886C 2742.71,4890.43 2754.71,4896.1 2766.5,4903C 2773.27,4907.77 2779.44,4913.27 2785,4919.5C 2789.94,4927.06 2790.78,4935.06 2787.5,4943.5C 2780.54,4952.14 2772.54,4959.64 2763.5,4966C 2730.5,4982.23 2695.83,4994.23 2659.5,5002C 2615.64,5011.81 2571.97,5019.47 2528.5,5025C 2432.54,5037.21 2336.21,5044.71 2239.5,5047.5C 2193.35,5048.85 2147.18,5049.51 2101,5049.5C 2065.64,5049 2030.3,5049 1995,5049.5C 1989.98,5047.79 1984.82,5047.12 1979.5,5047.5C 1856.26,5044.57 1734.6,5033.4 1614.5,5014C 1564.75,5005.85 1516.41,4992.85 1469.5,4975C 1461.04,4970.6 1452.7,4965.93 1444.5,4961C 1440.69,4958.22 1436.85,4954.72 1433,4950.5C 1423.14,4936.4 1424.64,4923.56 1437.5,4912C 1445.19,4906.16 1453.19,4900.83 1461.5,4896C 1499.18,4879.72 1538.01,4867.88 1578,4860.5C 1656.52,4845.22 1735.68,4834.55 1815.5,4828.5C 1802.76,4841.41 1790.92,4855.08 1780,4869.5C 1767.47,4888.27 1762.47,4908.94 1765,4931.5C 1766.46,4951.09 1773.63,4968.09 1786.5,4982.5C 1793.87,4989.35 1802.53,4993.85 1812.5,4996C 1829.74,4997.27 1846.08,4993.94 1861.5,4986C 1920.14,4956.58 1970.64,4916.75 2013,4866.5C 2024.77,4850.62 2033.6,4833.29 2039.5,4814.5 Z"/></g>
<g><path style="opacity:1" fill="#50a9a1" d="M 1979.5,5047.5 C 1984.82,5047.12 1989.98,5047.79 1995,5049.5C 2030.3,5049 2065.64,5049 2101,5049.5C 2147.18,5049.51 2193.35,5048.85 2239.5,5047.5C 2239.66,5049.53 2239.5,5051.53 2239,5053.5C 2237.27,5051.09 2235.11,5050.42 2232.5,5051.5C 2234.55,5053.19 2236.89,5054.36 2239.5,5055C 2238.83,5055.17 2238.17,5055.33 2237.5,5055.5C 2233.08,5054.42 2228.75,5054.42 2224.5,5055.5C 2221.78,5053.57 2218.78,5053.07 2215.5,5054C 2217.83,5054.33 2220.17,5054.67 2222.5,5055C 2220,5055.17 2217.5,5055.33 2215,5055.5C 2203.92,5055.33 2193.08,5055.33 2182.5,5055.5C 2180.17,5055.33 2177.83,5055.17 2175.5,5055C 2178.23,5054.82 2180.89,5054.32 2183.5,5053.5C 2180.63,5052.22 2177.79,5052.22 2175,5053.5C 2173.99,5052.34 2172.66,5051.68 2171,5051.5C 2166.84,5052.07 2162.68,5052.57 2158.5,5053C 2169.46,5053.96 2169.79,5054.79 2159.5,5055.5C 2120.83,5054.26 2082.33,5054.26 2044,5055.5C 2039.46,5052.99 2034.62,5052.16 2029.5,5053C 2031.79,5053.98 2031.46,5054.82 2028.5,5055.5C 2012.94,5055.03 1997.27,5055.03 1981.5,5055.5C 1980.56,5055.39 1979.72,5055.06 1979,5054.5C 1978.8,5051.85 1978.96,5049.51 1979.5,5047.5 Z"/></g>
</svg>